<svg width="1920" height="309" viewBox="0 0 1920 309" fill="none" xmlns="http://www.w3.org/2000/svg">
<rect width="1920" height="309" fill="#B7BCA9"/>
<path d="M82.0215 84.2031H83.665L87.8574 94.6357L92.041 84.2031H93.6934L88.4902 97H87.207L82.0215 84.2031ZM81.4854 84.2031H82.9355L83.1729 92.0078V97H81.4854V84.2031ZM92.7705 84.2031H94.2207V97H92.5332V92.0078L92.7705 84.2031ZM100.9 97.1758C100.238 97.1758 99.6377 97.0645 99.0986 96.8418C98.5654 96.6133 98.1055 96.2939 97.7188 95.8838C97.3379 95.4736 97.0449 94.9873 96.8398 94.4248C96.6348 93.8623 96.5322 93.2471 96.5322 92.5791V92.21C96.5322 91.4365 96.6465 90.748 96.875 90.1445C97.1035 89.5352 97.4141 89.0195 97.8066 88.5977C98.1992 88.1758 98.6445 87.8564 99.1426 87.6396C99.6406 87.4229 100.156 87.3145 100.689 87.3145C101.369 87.3145 101.955 87.4316 102.447 87.666C102.945 87.9004 103.353 88.2285 103.669 88.6504C103.985 89.0664 104.22 89.5586 104.372 90.127C104.524 90.6895 104.601 91.3047 104.601 91.9727V92.7021H97.499V91.375H102.975V91.252C102.951 90.8301 102.863 90.4199 102.711 90.0215C102.564 89.623 102.33 89.2949 102.008 89.0371C101.686 88.7793 101.246 88.6504 100.689 88.6504C100.32 88.6504 99.9805 88.7295 99.6699 88.8877C99.3594 89.04 99.0928 89.2686 98.8701 89.5732C98.6475 89.8779 98.4746 90.25 98.3516 90.6895C98.2285 91.1289 98.167 91.6357 98.167 92.21V92.5791C98.167 93.0303 98.2285 93.4551 98.3516 93.8535C98.4805 94.2461 98.665 94.5918 98.9053 94.8906C99.1514 95.1895 99.4473 95.4238 99.793 95.5938C100.145 95.7637 100.543 95.8486 100.988 95.8486C101.562 95.8486 102.049 95.7314 102.447 95.4971C102.846 95.2627 103.194 94.9492 103.493 94.5566L104.478 95.3389C104.272 95.6494 104.012 95.9453 103.695 96.2266C103.379 96.5078 102.989 96.7363 102.526 96.9121C102.069 97.0879 101.527 97.1758 100.9 97.1758ZM108.125 89.5205V97H106.499V87.4902H108.037L108.125 89.5205ZM107.738 91.8848L107.062 91.8584C107.067 91.208 107.164 90.6074 107.352 90.0566C107.539 89.5 107.803 89.0166 108.143 88.6064C108.482 88.1963 108.887 87.8799 109.355 87.6572C109.83 87.4287 110.354 87.3145 110.929 87.3145C111.397 87.3145 111.819 87.3789 112.194 87.5078C112.569 87.6309 112.889 87.8301 113.152 88.1055C113.422 88.3809 113.627 88.7383 113.768 89.1777C113.908 89.6113 113.979 90.1416 113.979 90.7686V97H112.344V90.751C112.344 90.2529 112.271 89.8545 112.124 89.5557C111.978 89.251 111.764 89.0312 111.482 88.8965C111.201 88.7559 110.855 88.6855 110.445 88.6855C110.041 88.6855 109.672 88.7705 109.338 88.9404C109.01 89.1104 108.726 89.3447 108.485 89.6436C108.251 89.9424 108.066 90.2852 107.932 90.6719C107.803 91.0527 107.738 91.457 107.738 91.8848ZM122.267 94.8027V87.4902H123.901V97H122.346L122.267 94.8027ZM122.574 92.7988L123.251 92.7812C123.251 93.4141 123.184 94 123.049 94.5391C122.92 95.0723 122.709 95.5352 122.416 95.9277C122.123 96.3203 121.739 96.6279 121.265 96.8506C120.79 97.0674 120.213 97.1758 119.533 97.1758C119.07 97.1758 118.646 97.1084 118.259 96.9736C117.878 96.8389 117.55 96.6309 117.274 96.3496C116.999 96.0684 116.785 95.7021 116.633 95.251C116.486 94.7998 116.413 94.2578 116.413 93.625V87.4902H118.039V93.6426C118.039 94.0703 118.086 94.4248 118.18 94.7061C118.279 94.9814 118.411 95.2012 118.575 95.3652C118.745 95.5234 118.933 95.6348 119.138 95.6992C119.349 95.7637 119.565 95.7959 119.788 95.7959C120.479 95.7959 121.027 95.6641 121.432 95.4004C121.836 95.1309 122.126 94.7705 122.302 94.3193C122.483 93.8623 122.574 93.3555 122.574 92.7988Z" fill="#36392D"/>
<path d="M172.214 84.2031V97H170.544V84.2031H172.214ZM176.327 84.2031V85.5918H166.439V84.2031H176.327ZM181.047 97.1758C180.385 97.1758 179.784 97.0645 179.245 96.8418C178.712 96.6133 178.252 96.2939 177.865 95.8838C177.484 95.4736 177.191 94.9873 176.986 94.4248C176.781 93.8623 176.679 93.2471 176.679 92.5791V92.21C176.679 91.4365 176.793 90.748 177.021 90.1445C177.25 89.5352 177.561 89.0195 177.953 88.5977C178.346 88.1758 178.791 87.8564 179.289 87.6396C179.787 87.4229 180.303 87.3145 180.836 87.3145C181.516 87.3145 182.102 87.4316 182.594 87.666C183.092 87.9004 183.499 88.2285 183.815 88.6504C184.132 89.0664 184.366 89.5586 184.519 90.127C184.671 90.6895 184.747 91.3047 184.747 91.9727V92.7021H177.646V91.375H183.121V91.252C183.098 90.8301 183.01 90.4199 182.857 90.0215C182.711 89.623 182.477 89.2949 182.154 89.0371C181.832 88.7793 181.393 88.6504 180.836 88.6504C180.467 88.6504 180.127 88.7295 179.816 88.8877C179.506 89.04 179.239 89.2686 179.017 89.5732C178.794 89.8779 178.621 90.25 178.498 90.6895C178.375 91.1289 178.313 91.6357 178.313 92.21V92.5791C178.313 93.0303 178.375 93.4551 178.498 93.8535C178.627 94.2461 178.812 94.5918 179.052 94.8906C179.298 95.1895 179.594 95.4238 179.939 95.5938C180.291 95.7637 180.689 95.8486 181.135 95.8486C181.709 95.8486 182.195 95.7314 182.594 95.4971C182.992 95.2627 183.341 94.9492 183.64 94.5566L184.624 95.3389C184.419 95.6494 184.158 95.9453 183.842 96.2266C183.525 96.5078 183.136 96.7363 182.673 96.9121C182.216 97.0879 181.674 97.1758 181.047 97.1758ZM192.253 95.374V90.4785C192.253 90.1035 192.177 89.7783 192.024 89.5029C191.878 89.2217 191.655 89.0049 191.356 88.8525C191.058 88.7002 190.688 88.624 190.249 88.624C189.839 88.624 189.479 88.6943 189.168 88.835C188.863 88.9756 188.623 89.1602 188.447 89.3887C188.277 89.6172 188.192 89.8633 188.192 90.127H186.566C186.566 89.7871 186.654 89.4502 186.83 89.1162C187.006 88.7822 187.258 88.4805 187.586 88.2109C187.92 87.9355 188.318 87.7188 188.781 87.5605C189.25 87.3965 189.771 87.3145 190.346 87.3145C191.037 87.3145 191.646 87.4316 192.174 87.666C192.707 87.9004 193.123 88.2549 193.422 88.7295C193.727 89.1982 193.879 89.7871 193.879 90.4961V94.9258C193.879 95.2422 193.905 95.5791 193.958 95.9365C194.017 96.2939 194.102 96.6016 194.213 96.8594V97H192.517C192.435 96.8125 192.37 96.5635 192.323 96.2529C192.276 95.9365 192.253 95.6436 192.253 95.374ZM192.534 91.2344L192.552 92.377H190.908C190.445 92.377 190.032 92.415 189.669 92.4912C189.306 92.5615 189.001 92.6699 188.755 92.8164C188.509 92.9629 188.321 93.1475 188.192 93.3701C188.063 93.5869 187.999 93.8418 187.999 94.1348C187.999 94.4336 188.066 94.7061 188.201 94.9521C188.336 95.1982 188.538 95.3945 188.808 95.541C189.083 95.6816 189.42 95.752 189.818 95.752C190.316 95.752 190.756 95.6465 191.137 95.4355C191.518 95.2246 191.819 94.9668 192.042 94.6621C192.271 94.3574 192.394 94.0615 192.411 93.7744L193.105 94.5566C193.064 94.8027 192.953 95.0752 192.771 95.374C192.59 95.6729 192.347 95.96 192.042 96.2354C191.743 96.5049 191.386 96.7305 190.97 96.9121C190.56 97.0879 190.097 97.1758 189.581 97.1758C188.937 97.1758 188.371 97.0498 187.885 96.7979C187.404 96.5459 187.029 96.209 186.76 95.7871C186.496 95.3594 186.364 94.8818 186.364 94.3545C186.364 93.8447 186.464 93.3965 186.663 93.0098C186.862 92.6172 187.149 92.292 187.524 92.0342C187.899 91.7705 188.351 91.5713 188.878 91.4365C189.405 91.3018 189.994 91.2344 190.645 91.2344H192.534ZM198.054 89.3799V97H196.419V87.4902H197.966L198.054 89.3799ZM197.72 91.8848L196.964 91.8584C196.97 91.208 197.055 90.6074 197.219 90.0566C197.383 89.5 197.626 89.0166 197.948 88.6064C198.271 88.1963 198.672 87.8799 199.152 87.6572C199.633 87.4287 200.189 87.3145 200.822 87.3145C201.268 87.3145 201.678 87.3789 202.053 87.5078C202.428 87.6309 202.753 87.8271 203.028 88.0967C203.304 88.3662 203.518 88.7119 203.67 89.1338C203.822 89.5557 203.898 90.0654 203.898 90.6631V97H202.272V90.7422C202.272 90.2441 202.188 89.8457 202.018 89.5469C201.854 89.248 201.619 89.0312 201.314 88.8965C201.01 88.7559 200.652 88.6855 200.242 88.6855C199.762 88.6855 199.36 88.7705 199.038 88.9404C198.716 89.1104 198.458 89.3447 198.265 89.6436C198.071 89.9424 197.931 90.2852 197.843 90.6719C197.761 91.0527 197.72 91.457 197.72 91.8848ZM203.881 90.9883L202.791 91.3223C202.797 90.8008 202.882 90.2998 203.046 89.8193C203.216 89.3389 203.459 88.9111 203.775 88.5361C204.098 88.1611 204.493 87.8652 204.962 87.6484C205.431 87.4258 205.967 87.3145 206.57 87.3145C207.08 87.3145 207.531 87.3818 207.924 87.5166C208.322 87.6514 208.656 87.8594 208.926 88.1406C209.201 88.416 209.409 88.7705 209.55 89.2041C209.69 89.6377 209.761 90.1533 209.761 90.751V97H208.126V90.7334C208.126 90.2002 208.041 89.7871 207.871 89.4941C207.707 89.1953 207.473 88.9873 207.168 88.8701C206.869 88.7471 206.512 88.6855 206.096 88.6855C205.738 88.6855 205.422 88.7471 205.146 88.8701C204.871 88.9932 204.64 89.1631 204.452 89.3799C204.265 89.5908 204.121 89.834 204.021 90.1094C203.928 90.3848 203.881 90.6777 203.881 90.9883Z" fill="#36392D"/>
<path d="M260.615 95.6201V97H253.839V95.6201H260.615ZM254.182 84.2031V97H252.485V84.2031H254.182ZM259.719 89.7051V91.085H253.839V89.7051H259.719ZM260.527 84.2031V85.5918H253.839V84.2031H260.527ZM265.133 95.5322L267.734 87.4902H269.396L265.977 97H264.887L265.133 95.5322ZM262.962 87.4902L265.643 95.5762L265.827 97H264.737L261.292 87.4902H262.962ZM274.783 97.1758C274.121 97.1758 273.521 97.0645 272.981 96.8418C272.448 96.6133 271.988 96.2939 271.602 95.8838C271.221 95.4736 270.928 94.9873 270.723 94.4248C270.518 93.8623 270.415 93.2471 270.415 92.5791V92.21C270.415 91.4365 270.529 90.748 270.758 90.1445C270.986 89.5352 271.297 89.0195 271.689 88.5977C272.082 88.1758 272.527 87.8564 273.025 87.6396C273.523 87.4229 274.039 87.3145 274.572 87.3145C275.252 87.3145 275.838 87.4316 276.33 87.666C276.828 87.9004 277.235 88.2285 277.552 88.6504C277.868 89.0664 278.103 89.5586 278.255 90.127C278.407 90.6895 278.483 91.3047 278.483 91.9727V92.7021H271.382V91.375H276.857V91.252C276.834 90.8301 276.746 90.4199 276.594 90.0215C276.447 89.623 276.213 89.2949 275.891 89.0371C275.568 88.7793 275.129 88.6504 274.572 88.6504C274.203 88.6504 273.863 88.7295 273.553 88.8877C273.242 89.04 272.976 89.2686 272.753 89.5732C272.53 89.8779 272.357 90.25 272.234 90.6895C272.111 91.1289 272.05 91.6357 272.05 92.21V92.5791C272.05 93.0303 272.111 93.4551 272.234 93.8535C272.363 94.2461 272.548 94.5918 272.788 94.8906C273.034 95.1895 273.33 95.4238 273.676 95.5938C274.027 95.7637 274.426 95.8486 274.871 95.8486C275.445 95.8486 275.932 95.7314 276.33 95.4971C276.729 95.2627 277.077 94.9492 277.376 94.5566L278.36 95.3389C278.155 95.6494 277.895 95.9453 277.578 96.2266C277.262 96.5078 276.872 96.7363 276.409 96.9121C275.952 97.0879 275.41 97.1758 274.783 97.1758ZM282.008 89.5205V97H280.382V87.4902H281.92L282.008 89.5205ZM281.621 91.8848L280.944 91.8584C280.95 91.208 281.047 90.6074 281.234 90.0566C281.422 89.5 281.686 89.0166 282.025 88.6064C282.365 88.1963 282.77 87.8799 283.238 87.6572C283.713 87.4287 284.237 87.3145 284.812 87.3145C285.28 87.3145 285.702 87.3789 286.077 87.5078C286.452 87.6309 286.771 87.8301 287.035 88.1055C287.305 88.3809 287.51 88.7383 287.65 89.1777C287.791 89.6113 287.861 90.1416 287.861 90.7686V97H286.227V90.751C286.227 90.2529 286.153 89.8545 286.007 89.5557C285.86 89.251 285.646 89.0312 285.365 88.8965C285.084 88.7559 284.738 88.6855 284.328 88.6855C283.924 88.6855 283.555 88.7705 283.221 88.9404C282.893 89.1104 282.608 89.3447 282.368 89.6436C282.134 89.9424 281.949 90.2852 281.814 90.6719C281.686 91.0527 281.621 91.457 281.621 91.8848ZM294.312 87.4902V88.7383H289.171V87.4902H294.312ZM290.911 85.1787H292.537V94.6445C292.537 94.9668 292.587 95.21 292.687 95.374C292.786 95.5381 292.915 95.6465 293.073 95.6992C293.231 95.752 293.401 95.7783 293.583 95.7783C293.718 95.7783 293.858 95.7666 294.005 95.7432C294.157 95.7139 294.271 95.6904 294.348 95.6729L294.356 97C294.228 97.041 294.058 97.0791 293.847 97.1143C293.642 97.1553 293.393 97.1758 293.1 97.1758C292.701 97.1758 292.335 97.0967 292.001 96.9385C291.667 96.7803 291.4 96.5166 291.201 96.1475C291.008 95.7725 290.911 95.2686 290.911 94.6357V85.1787ZM301.757 94.4775C301.757 94.2432 301.704 94.0264 301.599 93.8271C301.499 93.6221 301.291 93.4375 300.975 93.2734C300.664 93.1035 300.195 92.957 299.568 92.834C299.041 92.7227 298.563 92.5908 298.136 92.4385C297.714 92.2861 297.354 92.1016 297.055 91.8848C296.762 91.668 296.536 91.4131 296.378 91.1201C296.22 90.8271 296.141 90.4844 296.141 90.0918C296.141 89.7168 296.223 89.3623 296.387 89.0283C296.557 88.6943 296.794 88.3984 297.099 88.1406C297.409 87.8828 297.781 87.6807 298.215 87.5342C298.648 87.3877 299.132 87.3145 299.665 87.3145C300.427 87.3145 301.077 87.4492 301.616 87.7188C302.155 87.9883 302.568 88.3486 302.855 88.7998C303.143 89.2451 303.286 89.7402 303.286 90.2852H301.66C301.66 90.0215 301.581 89.7666 301.423 89.5205C301.271 89.2686 301.045 89.0605 300.746 88.8965C300.453 88.7324 300.093 88.6504 299.665 88.6504C299.214 88.6504 298.848 88.7207 298.566 88.8613C298.291 88.9961 298.089 89.1689 297.96 89.3799C297.837 89.5908 297.775 89.8135 297.775 90.0479C297.775 90.2236 297.805 90.3818 297.863 90.5225C297.928 90.6572 298.039 90.7832 298.197 90.9004C298.355 91.0117 298.578 91.1172 298.865 91.2168C299.152 91.3164 299.519 91.416 299.964 91.5156C300.743 91.6914 301.385 91.9023 301.889 92.1484C302.393 92.3945 302.768 92.6963 303.014 93.0537C303.26 93.4111 303.383 93.8447 303.383 94.3545C303.383 94.7705 303.295 95.1514 303.119 95.4971C302.949 95.8428 302.7 96.1416 302.372 96.3936C302.05 96.6396 301.663 96.833 301.212 96.9736C300.767 97.1084 300.266 97.1758 299.709 97.1758C298.871 97.1758 298.162 97.0264 297.582 96.7275C297.002 96.4287 296.562 96.042 296.264 95.5674C295.965 95.0928 295.815 94.5918 295.815 94.0645H297.45C297.474 94.5098 297.603 94.8643 297.837 95.1279C298.071 95.3857 298.358 95.5703 298.698 95.6816C299.038 95.7871 299.375 95.8398 299.709 95.8398C300.154 95.8398 300.526 95.7812 300.825 95.6641C301.13 95.5469 301.361 95.3857 301.52 95.1807C301.678 94.9756 301.757 94.7412 301.757 94.4775Z" fill="#36392D"/>
<path d="M354.211 92.9307H355.898C355.811 93.7393 355.579 94.4629 355.204 95.1016C354.829 95.7402 354.299 96.2471 353.613 96.6221C352.928 96.9912 352.072 97.1758 351.047 97.1758C350.297 97.1758 349.614 97.0352 348.999 96.7539C348.39 96.4727 347.865 96.0742 347.426 95.5586C346.986 95.0371 346.646 94.4131 346.406 93.6865C346.172 92.9541 346.055 92.1396 346.055 91.2432V89.9688C346.055 89.0723 346.172 88.2607 346.406 87.5342C346.646 86.8018 346.989 86.1748 347.435 85.6533C347.886 85.1318 348.428 84.7305 349.061 84.4492C349.693 84.168 350.405 84.0273 351.196 84.0273C352.163 84.0273 352.98 84.209 353.648 84.5723C354.316 84.9355 354.835 85.4395 355.204 86.084C355.579 86.7227 355.811 87.4639 355.898 88.3076H354.211C354.129 87.71 353.977 87.1973 353.754 86.7695C353.531 86.3359 353.215 86.002 352.805 85.7676C352.395 85.5332 351.858 85.416 351.196 85.416C350.628 85.416 350.127 85.5244 349.693 85.7412C349.266 85.958 348.905 86.2656 348.612 86.6641C348.325 87.0625 348.108 87.54 347.962 88.0967C347.815 88.6533 347.742 89.2715 347.742 89.9512V91.2432C347.742 91.8701 347.807 92.459 347.936 93.0098C348.07 93.5605 348.272 94.0439 348.542 94.46C348.812 94.876 349.154 95.2041 349.57 95.4443C349.986 95.6787 350.479 95.7959 351.047 95.7959C351.768 95.7959 352.342 95.6816 352.77 95.4531C353.197 95.2246 353.52 94.8965 353.736 94.4688C353.959 94.041 354.117 93.5283 354.211 92.9307ZM357.533 92.3506V92.1484C357.533 91.4629 357.633 90.8271 357.832 90.2412C358.031 89.6494 358.318 89.1367 358.693 88.7031C359.068 88.2637 359.522 87.9238 360.056 87.6836C360.589 87.4375 361.187 87.3145 361.849 87.3145C362.517 87.3145 363.117 87.4375 363.65 87.6836C364.189 87.9238 364.646 88.2637 365.021 88.7031C365.402 89.1367 365.692 89.6494 365.892 90.2412C366.091 90.8271 366.19 91.4629 366.19 92.1484V92.3506C366.19 93.0361 366.091 93.6719 365.892 94.2578C365.692 94.8438 365.402 95.3564 365.021 95.7959C364.646 96.2295 364.192 96.5693 363.659 96.8154C363.132 97.0557 362.534 97.1758 361.866 97.1758C361.198 97.1758 360.598 97.0557 360.064 96.8154C359.531 96.5693 359.074 96.2295 358.693 95.7959C358.318 95.3564 358.031 94.8438 357.832 94.2578C357.633 93.6719 357.533 93.0361 357.533 92.3506ZM359.159 92.1484V92.3506C359.159 92.8252 359.215 93.2734 359.326 93.6953C359.438 94.1113 359.604 94.4805 359.827 94.8027C360.056 95.125 360.34 95.3799 360.68 95.5674C361.02 95.749 361.415 95.8398 361.866 95.8398C362.312 95.8398 362.701 95.749 363.035 95.5674C363.375 95.3799 363.656 95.125 363.879 94.8027C364.102 94.4805 364.269 94.1113 364.38 93.6953C364.497 93.2734 364.556 92.8252 364.556 92.3506V92.1484C364.556 91.6797 364.497 91.2373 364.38 90.8213C364.269 90.3994 364.099 90.0273 363.87 89.7051C363.647 89.377 363.366 89.1191 363.026 88.9316C362.692 88.7441 362.3 88.6504 361.849 88.6504C361.403 88.6504 361.011 88.7441 360.671 88.9316C360.337 89.1191 360.056 89.377 359.827 89.7051C359.604 90.0273 359.438 90.3994 359.326 90.8213C359.215 91.2373 359.159 91.6797 359.159 92.1484ZM369.855 89.5205V97H368.229V87.4902H369.768L369.855 89.5205ZM369.469 91.8848L368.792 91.8584C368.798 91.208 368.895 90.6074 369.082 90.0566C369.27 89.5 369.533 89.0166 369.873 88.6064C370.213 88.1963 370.617 87.8799 371.086 87.6572C371.561 87.4287 372.085 87.3145 372.659 87.3145C373.128 87.3145 373.55 87.3789 373.925 87.5078C374.3 87.6309 374.619 87.8301 374.883 88.1055C375.152 88.3809 375.357 88.7383 375.498 89.1777C375.639 89.6113 375.709 90.1416 375.709 90.7686V97H374.074V90.751C374.074 90.2529 374.001 89.8545 373.854 89.5557C373.708 89.251 373.494 89.0312 373.213 88.8965C372.932 88.7559 372.586 88.6855 372.176 88.6855C371.771 88.6855 371.402 88.7705 371.068 88.9404C370.74 89.1104 370.456 89.3447 370.216 89.6436C369.981 89.9424 369.797 90.2852 369.662 90.6719C369.533 91.0527 369.469 91.457 369.469 91.8848ZM382.16 87.4902V88.7383H377.019V87.4902H382.16ZM378.759 85.1787H380.385V94.6445C380.385 94.9668 380.435 95.21 380.534 95.374C380.634 95.5381 380.763 95.6465 380.921 95.6992C381.079 95.752 381.249 95.7783 381.431 95.7783C381.565 95.7783 381.706 95.7666 381.853 95.7432C382.005 95.7139 382.119 95.6904 382.195 95.6729L382.204 97C382.075 97.041 381.905 97.0791 381.694 97.1143C381.489 97.1553 381.24 97.1758 380.947 97.1758C380.549 97.1758 380.183 97.0967 379.849 96.9385C379.515 96.7803 379.248 96.5166 379.049 96.1475C378.855 95.7725 378.759 95.2686 378.759 94.6357V85.1787ZM389.675 95.374V90.4785C389.675 90.1035 389.599 89.7783 389.446 89.5029C389.3 89.2217 389.077 89.0049 388.778 88.8525C388.479 88.7002 388.11 88.624 387.671 88.624C387.261 88.624 386.9 88.6943 386.59 88.835C386.285 88.9756 386.045 89.1602 385.869 89.3887C385.699 89.6172 385.614 89.8633 385.614 90.127H383.988C383.988 89.7871 384.076 89.4502 384.252 89.1162C384.428 88.7822 384.68 88.4805 385.008 88.2109C385.342 87.9355 385.74 87.7188 386.203 87.5605C386.672 87.3965 387.193 87.3145 387.768 87.3145C388.459 87.3145 389.068 87.4316 389.596 87.666C390.129 87.9004 390.545 88.2549 390.844 88.7295C391.148 89.1982 391.301 89.7871 391.301 90.4961V94.9258C391.301 95.2422 391.327 95.5791 391.38 95.9365C391.438 96.2939 391.523 96.6016 391.635 96.8594V97H389.938C389.856 96.8125 389.792 96.5635 389.745 96.2529C389.698 95.9365 389.675 95.6436 389.675 95.374ZM389.956 91.2344L389.974 92.377H388.33C387.867 92.377 387.454 92.415 387.091 92.4912C386.728 92.5615 386.423 92.6699 386.177 92.8164C385.931 92.9629 385.743 93.1475 385.614 93.3701C385.485 93.5869 385.421 93.8418 385.421 94.1348C385.421 94.4336 385.488 94.7061 385.623 94.9521C385.758 95.1982 385.96 95.3945 386.229 95.541C386.505 95.6816 386.842 95.752 387.24 95.752C387.738 95.752 388.178 95.6465 388.559 95.4355C388.939 95.2246 389.241 94.9668 389.464 94.6621C389.692 94.3574 389.815 94.0615 389.833 93.7744L390.527 94.5566C390.486 94.8027 390.375 95.0752 390.193 95.374C390.012 95.6729 389.769 95.96 389.464 96.2354C389.165 96.5049 388.808 96.7305 388.392 96.9121C387.981 97.0879 387.519 97.1758 387.003 97.1758C386.358 97.1758 385.793 97.0498 385.307 96.7979C384.826 96.5459 384.451 96.209 384.182 95.7871C383.918 95.3594 383.786 94.8818 383.786 94.3545C383.786 93.8447 383.886 93.3965 384.085 93.0098C384.284 92.6172 384.571 92.292 384.946 92.0342C385.321 91.7705 385.772 91.5713 386.3 91.4365C386.827 91.3018 387.416 91.2344 388.066 91.2344H389.956ZM397.664 95.8398C398.051 95.8398 398.408 95.7607 398.736 95.6025C399.064 95.4443 399.334 95.2275 399.545 94.9521C399.756 94.6709 399.876 94.3516 399.905 93.9941H401.452C401.423 94.5566 401.232 95.0811 400.881 95.5674C400.535 96.0479 400.081 96.4375 399.519 96.7363C398.956 97.0293 398.338 97.1758 397.664 97.1758C396.949 97.1758 396.325 97.0498 395.792 96.7979C395.265 96.5459 394.825 96.2002 394.474 95.7607C394.128 95.3213 393.867 94.8174 393.691 94.249C393.521 93.6748 393.437 93.0684 393.437 92.4297V92.0605C393.437 91.4219 393.521 90.8184 393.691 90.25C393.867 89.6758 394.128 89.1689 394.474 88.7295C394.825 88.29 395.265 87.9443 395.792 87.6924C396.325 87.4404 396.949 87.3145 397.664 87.3145C398.408 87.3145 399.059 87.4668 399.615 87.7715C400.172 88.0703 400.608 88.4805 400.925 89.002C401.247 89.5176 401.423 90.1035 401.452 90.7598H399.905C399.876 90.3672 399.765 90.0127 399.571 89.6963C399.384 89.3799 399.126 89.1279 398.798 88.9404C398.476 88.7471 398.098 88.6504 397.664 88.6504C397.166 88.6504 396.747 88.75 396.407 88.9492C396.073 89.1426 395.807 89.4062 395.607 89.7402C395.414 90.0684 395.273 90.4346 395.186 90.8389C395.104 91.2373 395.062 91.6445 395.062 92.0605V92.4297C395.062 92.8457 395.104 93.2559 395.186 93.6602C395.268 94.0645 395.405 94.4307 395.599 94.7588C395.798 95.0869 396.064 95.3506 396.398 95.5498C396.738 95.7432 397.16 95.8398 397.664 95.8398ZM407.262 87.4902V88.7383H402.12V87.4902H407.262ZM403.86 85.1787H405.486V94.6445C405.486 94.9668 405.536 95.21 405.636 95.374C405.735 95.5381 405.864 95.6465 406.022 95.6992C406.181 95.752 406.351 95.7783 406.532 95.7783C406.667 95.7783 406.808 95.7666 406.954 95.7432C407.106 95.7139 407.221 95.6904 407.297 95.6729L407.306 97C407.177 97.041 407.007 97.0791 406.796 97.1143C406.591 97.1553 406.342 97.1758 406.049 97.1758C405.65 97.1758 405.284 97.0967 404.95 96.9385C404.616 96.7803 404.35 96.5166 404.15 96.1475C403.957 95.7725 403.86 95.2686 403.86 94.6357V85.1787Z" fill="#36392D"/>
<path d="M1649.31 93.7656C1649.31 93.4668 1649.26 93.2031 1649.17 92.9746C1649.08 92.7402 1648.92 92.5293 1648.69 92.3418C1648.47 92.1543 1648.16 91.9756 1647.76 91.8057C1647.37 91.6357 1646.87 91.4629 1646.26 91.2871C1645.63 91.0996 1645.06 90.8916 1644.55 90.6631C1644.04 90.4287 1643.6 90.1621 1643.24 89.8633C1642.88 89.5645 1642.6 89.2217 1642.41 88.835C1642.21 88.4482 1642.12 88.0059 1642.12 87.5078C1642.12 87.0098 1642.22 86.5498 1642.42 86.1279C1642.63 85.7061 1642.92 85.3398 1643.3 85.0293C1643.69 84.7129 1644.15 84.4668 1644.68 84.291C1645.22 84.1152 1645.81 84.0273 1646.47 84.0273C1647.43 84.0273 1648.24 84.2119 1648.91 84.5811C1649.58 84.9443 1650.1 85.4219 1650.45 86.0137C1650.8 86.5996 1650.98 87.2266 1650.98 87.8945H1649.29C1649.29 87.4141 1649.19 86.9893 1648.98 86.6201C1648.78 86.2451 1648.46 85.9521 1648.05 85.7412C1647.63 85.5244 1647.11 85.416 1646.47 85.416C1645.86 85.416 1645.37 85.5068 1644.97 85.6885C1644.58 85.8701 1644.29 86.1162 1644.09 86.4268C1643.91 86.7373 1643.81 87.0918 1643.81 87.4902C1643.81 87.7598 1643.87 88.0059 1643.98 88.2285C1644.1 88.4453 1644.28 88.6475 1644.52 88.835C1644.76 89.0225 1645.07 89.1953 1645.45 89.3535C1645.83 89.5117 1646.28 89.6641 1646.81 89.8105C1647.54 90.0156 1648.16 90.2441 1648.69 90.4961C1649.22 90.748 1649.65 91.0322 1649.99 91.3486C1650.34 91.6592 1650.59 92.0137 1650.76 92.4121C1650.93 92.8047 1651.01 93.25 1651.01 93.748C1651.01 94.2695 1650.91 94.7412 1650.69 95.1631C1650.48 95.585 1650.18 95.9453 1649.79 96.2441C1649.4 96.543 1648.92 96.7744 1648.37 96.9385C1647.83 97.0967 1647.22 97.1758 1646.55 97.1758C1645.95 97.1758 1645.37 97.0938 1644.8 96.9297C1644.23 96.7656 1643.71 96.5195 1643.24 96.1914C1642.78 95.8633 1642.41 95.459 1642.12 94.9785C1641.85 94.4922 1641.71 93.9297 1641.71 93.291H1643.4C1643.4 93.7305 1643.48 94.1084 1643.65 94.4248C1643.82 94.7354 1644.06 94.9932 1644.35 95.1982C1644.65 95.4033 1644.98 95.5557 1645.36 95.6553C1645.74 95.749 1646.14 95.7959 1646.55 95.7959C1647.14 95.7959 1647.64 95.7139 1648.05 95.5498C1648.46 95.3857 1648.77 95.1514 1648.98 94.8467C1649.2 94.542 1649.31 94.1816 1649.31 93.7656ZM1654.69 87.4902V97H1653.06V87.4902H1654.69ZM1652.94 84.9678C1652.94 84.7041 1653.01 84.4814 1653.17 84.2998C1653.34 84.1182 1653.58 84.0273 1653.89 84.0273C1654.2 84.0273 1654.44 84.1182 1654.61 84.2998C1654.78 84.4814 1654.86 84.7041 1654.86 84.9678C1654.86 85.2197 1654.78 85.4365 1654.61 85.6182C1654.44 85.7939 1654.2 85.8818 1653.89 85.8818C1653.58 85.8818 1653.34 85.7939 1653.17 85.6182C1653.01 85.4365 1652.94 85.2197 1652.94 84.9678ZM1663.46 87.4902H1664.94V96.7979C1664.94 97.6357 1664.77 98.3506 1664.43 98.9424C1664.09 99.5342 1663.62 99.9824 1663.01 100.287C1662.4 100.598 1661.71 100.753 1660.92 100.753C1660.59 100.753 1660.2 100.7 1659.76 100.595C1659.32 100.495 1658.88 100.322 1658.46 100.076C1658.03 99.8359 1657.68 99.5107 1657.39 99.1006L1658.24 98.1338C1658.64 98.6143 1659.06 98.9482 1659.49 99.1357C1659.93 99.3232 1660.37 99.417 1660.79 99.417C1661.31 99.417 1661.75 99.3203 1662.13 99.127C1662.5 98.9336 1662.79 98.6465 1663 98.2656C1663.21 97.8906 1663.32 97.4277 1663.32 96.877V89.582L1663.46 87.4902ZM1656.92 92.3506V92.166C1656.92 91.4395 1657 90.7803 1657.17 90.1885C1657.35 89.5908 1657.6 89.0781 1657.92 88.6504C1658.25 88.2227 1658.64 87.8945 1659.11 87.666C1659.57 87.4316 1660.09 87.3145 1660.67 87.3145C1661.27 87.3145 1661.79 87.4199 1662.23 87.6309C1662.69 87.8359 1663.07 88.1377 1663.38 88.5361C1663.69 88.9287 1663.94 89.4033 1664.12 89.96C1664.31 90.5166 1664.43 91.1465 1664.5 91.8496V92.6582C1664.44 93.3555 1664.31 93.9824 1664.12 94.5391C1663.94 95.0957 1663.69 95.5703 1663.38 95.9629C1663.07 96.3555 1662.69 96.6572 1662.23 96.8682C1661.78 97.0732 1661.26 97.1758 1660.65 97.1758C1660.08 97.1758 1659.57 97.0557 1659.11 96.8154C1658.65 96.5752 1658.26 96.2383 1657.93 95.8047C1657.6 95.3711 1657.35 94.8613 1657.17 94.2754C1657 93.6836 1656.92 93.042 1656.92 92.3506ZM1658.54 92.166V92.3506C1658.54 92.8252 1658.59 93.2705 1658.68 93.6865C1658.78 94.1025 1658.93 94.4688 1659.13 94.7852C1659.34 95.1016 1659.6 95.3506 1659.91 95.5322C1660.23 95.708 1660.61 95.7959 1661.05 95.7959C1661.59 95.7959 1662.03 95.6816 1662.38 95.4531C1662.74 95.2246 1663.01 94.9229 1663.22 94.5479C1663.43 94.1729 1663.59 93.7656 1663.71 93.3262V91.208C1663.65 90.8857 1663.55 90.5752 1663.41 90.2764C1663.28 89.9717 1663.11 89.7021 1662.9 89.4678C1662.7 89.2275 1662.44 89.0371 1662.14 88.8965C1661.83 88.7559 1661.48 88.6855 1661.07 88.6855C1660.62 88.6855 1660.24 88.7793 1659.91 88.9668C1659.6 89.1484 1659.34 89.4004 1659.13 89.7227C1658.93 90.0391 1658.78 90.4082 1658.68 90.8301C1658.59 91.2461 1658.54 91.6914 1658.54 92.166ZM1669.04 89.5205V97H1667.41V87.4902H1668.95L1669.04 89.5205ZM1668.65 91.8848L1667.97 91.8584C1667.98 91.208 1668.08 90.6074 1668.26 90.0566C1668.45 89.5 1668.71 89.0166 1669.05 88.6064C1669.39 88.1963 1669.8 87.8799 1670.27 87.6572C1670.74 87.4287 1671.27 87.3145 1671.84 87.3145C1672.31 87.3145 1672.73 87.3789 1673.11 87.5078C1673.48 87.6309 1673.8 87.8301 1674.06 88.1055C1674.33 88.3809 1674.54 88.7383 1674.68 89.1777C1674.82 89.6113 1674.89 90.1416 1674.89 90.7686V97H1673.26V90.751C1673.26 90.2529 1673.18 89.8545 1673.04 89.5557C1672.89 89.251 1672.68 89.0312 1672.39 88.8965C1672.11 88.7559 1671.77 88.6855 1671.36 88.6855C1670.95 88.6855 1670.58 88.7705 1670.25 88.9404C1669.92 89.1104 1669.64 89.3447 1669.4 89.6436C1669.16 89.9424 1668.98 90.2852 1668.84 90.6719C1668.71 91.0527 1668.65 91.457 1668.65 91.8848ZM1687.64 94.8027V87.4902H1689.28V97H1687.72L1687.64 94.8027ZM1687.95 92.7988L1688.63 92.7812C1688.63 93.4141 1688.56 94 1688.43 94.5391C1688.3 95.0723 1688.09 95.5352 1687.79 95.9277C1687.5 96.3203 1687.12 96.6279 1686.64 96.8506C1686.17 97.0674 1685.59 97.1758 1684.91 97.1758C1684.45 97.1758 1684.02 97.1084 1683.64 96.9736C1683.25 96.8389 1682.93 96.6309 1682.65 96.3496C1682.38 96.0684 1682.16 95.7021 1682.01 95.251C1681.86 94.7998 1681.79 94.2578 1681.79 93.625V87.4902H1683.42V93.6426C1683.42 94.0703 1683.46 94.4248 1683.56 94.7061C1683.66 94.9814 1683.79 95.2012 1683.95 95.3652C1684.12 95.5234 1684.31 95.6348 1684.51 95.6992C1684.73 95.7637 1684.94 95.7959 1685.17 95.7959C1685.86 95.7959 1686.4 95.6641 1686.81 95.4004C1687.21 95.1309 1687.5 94.7705 1687.68 94.3193C1687.86 93.8623 1687.95 93.3555 1687.95 92.7988ZM1693.38 89.3184V100.656H1691.75V87.4902H1693.24L1693.38 89.3184ZM1699.79 92.166V92.3506C1699.79 93.042 1699.71 93.6836 1699.54 94.2754C1699.38 94.8613 1699.14 95.3711 1698.82 95.8047C1698.51 96.2383 1698.13 96.5752 1697.67 96.8154C1697.21 97.0557 1696.69 97.1758 1696.1 97.1758C1695.5 97.1758 1694.96 97.0762 1694.5 96.877C1694.04 96.6777 1693.64 96.3877 1693.32 96.0068C1693 95.626 1692.74 95.1689 1692.55 94.6357C1692.36 94.1025 1692.23 93.502 1692.16 92.834V91.8496C1692.23 91.1465 1692.36 90.5166 1692.56 89.96C1692.75 89.4033 1693 88.9287 1693.32 88.5361C1693.64 88.1377 1694.03 87.8359 1694.49 87.6309C1694.95 87.4199 1695.47 87.3145 1696.07 87.3145C1696.67 87.3145 1697.2 87.4316 1697.66 87.666C1698.13 87.8945 1698.52 88.2227 1698.83 88.6504C1699.15 89.0781 1699.39 89.5908 1699.54 90.1885C1699.71 90.7803 1699.79 91.4395 1699.79 92.166ZM1698.16 92.3506V92.166C1698.16 91.6914 1698.11 91.2461 1698.01 90.8301C1697.91 90.4082 1697.75 90.0391 1697.54 89.7227C1697.33 89.4004 1697.07 89.1484 1696.75 88.9668C1696.43 88.7793 1696.04 88.6855 1695.6 88.6855C1695.19 88.6855 1694.83 88.7559 1694.53 88.8965C1694.23 89.0371 1693.97 89.2275 1693.76 89.4678C1693.55 89.7021 1693.38 89.9717 1693.24 90.2764C1693.11 90.5752 1693.02 90.8857 1692.95 91.208V93.4844C1693.07 93.8945 1693.23 94.2812 1693.44 94.6445C1693.66 95.002 1693.94 95.292 1694.29 95.5146C1694.64 95.7314 1695.08 95.8398 1695.62 95.8398C1696.05 95.8398 1696.43 95.749 1696.75 95.5674C1697.07 95.3799 1697.33 95.125 1697.54 94.8027C1697.75 94.4805 1697.91 94.1113 1698.01 93.6953C1698.11 93.2734 1698.16 92.8252 1698.16 92.3506ZM1710.31 87.4902V88.7383H1705.17V87.4902H1710.31ZM1706.91 85.1787H1708.54V94.6445C1708.54 94.9668 1708.58 95.21 1708.68 95.374C1708.78 95.5381 1708.91 95.6465 1709.07 95.6992C1709.23 95.752 1709.4 95.7783 1709.58 95.7783C1709.72 95.7783 1709.86 95.7666 1710 95.7432C1710.16 95.7139 1710.27 95.6904 1710.35 95.6729L1710.35 97C1710.23 97.041 1710.06 97.0791 1709.84 97.1143C1709.64 97.1553 1709.39 97.1758 1709.1 97.1758C1708.7 97.1758 1708.33 97.0967 1708 96.9385C1707.67 96.7803 1707.4 96.5166 1707.2 96.1475C1707.01 95.7725 1706.91 95.2686 1706.91 94.6357V85.1787ZM1711.61 92.3506V92.1484C1711.61 91.4629 1711.71 90.8271 1711.91 90.2412C1712.11 89.6494 1712.4 89.1367 1712.77 88.7031C1713.15 88.2637 1713.6 87.9238 1714.13 87.6836C1714.67 87.4375 1715.26 87.3145 1715.93 87.3145C1716.59 87.3145 1717.2 87.4375 1717.73 87.6836C1718.27 87.9238 1718.72 88.2637 1719.1 88.7031C1719.48 89.1367 1719.77 89.6494 1719.97 90.2412C1720.17 90.8271 1720.27 91.4629 1720.27 92.1484V92.3506C1720.27 93.0361 1720.17 93.6719 1719.97 94.2578C1719.77 94.8438 1719.48 95.3564 1719.1 95.7959C1718.72 96.2295 1718.27 96.5693 1717.74 96.8154C1717.21 97.0557 1716.61 97.1758 1715.94 97.1758C1715.28 97.1758 1714.68 97.0557 1714.14 96.8154C1713.61 96.5693 1713.15 96.2295 1712.77 95.7959C1712.4 95.3564 1712.11 94.8438 1711.91 94.2578C1711.71 93.6719 1711.61 93.0361 1711.61 92.3506ZM1713.24 92.1484V92.3506C1713.24 92.8252 1713.29 93.2734 1713.4 93.6953C1713.52 94.1113 1713.68 94.4805 1713.91 94.8027C1714.13 95.125 1714.42 95.3799 1714.76 95.5674C1715.1 95.749 1715.49 95.8398 1715.94 95.8398C1716.39 95.8398 1716.78 95.749 1717.11 95.5674C1717.45 95.3799 1717.73 95.125 1717.96 94.8027C1718.18 94.4805 1718.35 94.1113 1718.46 93.6953C1718.58 93.2734 1718.63 92.8252 1718.63 92.3506V92.1484C1718.63 91.6797 1718.58 91.2373 1718.46 90.8213C1718.35 90.3994 1718.18 90.0273 1717.95 89.7051C1717.73 89.377 1717.44 89.1191 1717.1 88.9316C1716.77 88.7441 1716.38 88.6504 1715.93 88.6504C1715.48 88.6504 1715.09 88.7441 1714.75 88.9316C1714.42 89.1191 1714.13 89.377 1713.91 89.7051C1713.68 90.0273 1713.52 90.3994 1713.4 90.8213C1713.29 91.2373 1713.24 91.6797 1713.24 92.1484ZM1726.34 92.3506V92.1484C1726.34 91.4629 1726.44 90.8271 1726.64 90.2412C1726.84 89.6494 1727.13 89.1367 1727.5 88.7031C1727.88 88.2637 1728.33 87.9238 1728.86 87.6836C1729.4 87.4375 1730 87.3145 1730.66 87.3145C1731.33 87.3145 1731.93 87.4375 1732.46 87.6836C1733 87.9238 1733.46 88.2637 1733.83 88.7031C1734.21 89.1367 1734.5 89.6494 1734.7 90.2412C1734.9 90.8271 1735 91.4629 1735 92.1484V92.3506C1735 93.0361 1734.9 93.6719 1734.7 94.2578C1734.5 94.8438 1734.21 95.3564 1733.83 95.7959C1733.46 96.2295 1733 96.5693 1732.47 96.8154C1731.94 97.0557 1731.34 97.1758 1730.67 97.1758C1730.01 97.1758 1729.41 97.0557 1728.87 96.8154C1728.34 96.5693 1727.88 96.2295 1727.5 95.7959C1727.13 95.3564 1726.84 94.8438 1726.64 94.2578C1726.44 93.6719 1726.34 93.0361 1726.34 92.3506ZM1727.97 92.1484V92.3506C1727.97 92.8252 1728.02 93.2734 1728.13 93.6953C1728.25 94.1113 1728.41 94.4805 1728.64 94.8027C1728.86 95.125 1729.15 95.3799 1729.49 95.5674C1729.83 95.749 1730.22 95.8398 1730.67 95.8398C1731.12 95.8398 1731.51 95.749 1731.84 95.5674C1732.18 95.3799 1732.46 95.125 1732.69 94.8027C1732.91 94.4805 1733.08 94.1113 1733.19 93.6953C1733.31 93.2734 1733.36 92.8252 1733.36 92.3506V92.1484C1733.36 91.6797 1733.31 91.2373 1733.19 90.8213C1733.08 90.3994 1732.91 90.0273 1732.68 89.7051C1732.46 89.377 1732.17 89.1191 1731.83 88.9316C1731.5 88.7441 1731.11 88.6504 1730.66 88.6504C1730.21 88.6504 1729.82 88.7441 1729.48 88.9316C1729.15 89.1191 1728.86 89.377 1728.64 89.7051C1728.41 90.0273 1728.25 90.3994 1728.13 90.8213C1728.02 91.2373 1727.97 91.6797 1727.97 92.1484ZM1742.86 94.8027V87.4902H1744.49V97H1742.94L1742.86 94.8027ZM1743.16 92.7988L1743.84 92.7812C1743.84 93.4141 1743.77 94 1743.64 94.5391C1743.51 95.0723 1743.3 95.5352 1743.01 95.9277C1742.71 96.3203 1742.33 96.6279 1741.85 96.8506C1741.38 97.0674 1740.8 97.1758 1740.12 97.1758C1739.66 97.1758 1739.24 97.1084 1738.85 96.9736C1738.47 96.8389 1738.14 96.6309 1737.86 96.3496C1737.59 96.0684 1737.38 95.7021 1737.22 95.251C1737.08 94.7998 1737 94.2578 1737 93.625V87.4902H1738.63V93.6426C1738.63 94.0703 1738.68 94.4248 1738.77 94.7061C1738.87 94.9814 1739 95.2012 1739.17 95.3652C1739.33 95.5234 1739.52 95.6348 1739.73 95.6992C1739.94 95.7637 1740.16 95.7959 1740.38 95.7959C1741.07 95.7959 1741.62 95.6641 1742.02 95.4004C1742.43 95.1309 1742.72 94.7705 1742.89 94.3193C1743.07 93.8623 1743.16 93.3555 1743.16 92.7988ZM1748.6 88.9844V97H1746.97V87.4902H1748.55L1748.6 88.9844ZM1751.57 87.4375L1751.56 88.9492C1751.42 88.9199 1751.29 88.9023 1751.17 88.8965C1751.05 88.8848 1750.92 88.8789 1750.77 88.8789C1750.39 88.8789 1750.06 88.9375 1749.77 89.0547C1749.49 89.1719 1749.24 89.3359 1749.04 89.5469C1748.84 89.7578 1748.69 90.0098 1748.57 90.3027C1748.46 90.5898 1748.38 90.9062 1748.35 91.252L1747.89 91.5156C1747.89 90.9414 1747.95 90.4023 1748.06 89.8984C1748.18 89.3945 1748.36 88.9492 1748.6 88.5625C1748.84 88.1699 1749.14 87.8652 1749.51 87.6484C1749.88 87.4258 1750.33 87.3145 1750.85 87.3145C1750.96 87.3145 1751.1 87.3291 1751.25 87.3584C1751.4 87.3818 1751.51 87.4082 1751.57 87.4375ZM1759.16 89.5205V97H1757.53V87.4902H1759.07L1759.16 89.5205ZM1758.77 91.8848L1758.1 91.8584C1758.1 91.208 1758.2 90.6074 1758.39 90.0566C1758.57 89.5 1758.84 89.0166 1759.18 88.6064C1759.52 88.1963 1759.92 87.8799 1760.39 87.6572C1760.87 87.4287 1761.39 87.3145 1761.96 87.3145C1762.43 87.3145 1762.85 87.3789 1763.23 87.5078C1763.6 87.6309 1763.92 87.8301 1764.19 88.1055C1764.46 88.3809 1764.66 88.7383 1764.8 89.1777C1764.94 89.6113 1765.01 90.1416 1765.01 90.7686V97H1763.38V90.751C1763.38 90.2529 1763.31 89.8545 1763.16 89.5557C1763.01 89.251 1762.8 89.0312 1762.52 88.8965C1762.24 88.7559 1761.89 88.6855 1761.48 88.6855C1761.08 88.6855 1760.71 88.7705 1760.37 88.9404C1760.04 89.1104 1759.76 89.3447 1759.52 89.6436C1759.29 89.9424 1759.1 90.2852 1758.97 90.6719C1758.84 91.0527 1758.77 91.457 1758.77 91.8848ZM1771.43 97.1758C1770.77 97.1758 1770.17 97.0645 1769.63 96.8418C1769.09 96.6133 1768.63 96.2939 1768.25 95.8838C1767.87 95.4736 1767.57 94.9873 1767.37 94.4248C1767.16 93.8623 1767.06 93.2471 1767.06 92.5791V92.21C1767.06 91.4365 1767.18 90.748 1767.4 90.1445C1767.63 89.5352 1767.94 89.0195 1768.34 88.5977C1768.73 88.1758 1769.17 87.8564 1769.67 87.6396C1770.17 87.4229 1770.69 87.3145 1771.22 87.3145C1771.9 87.3145 1772.48 87.4316 1772.98 87.666C1773.47 87.9004 1773.88 88.2285 1774.2 88.6504C1774.51 89.0664 1774.75 89.5586 1774.9 90.127C1775.05 90.6895 1775.13 91.3047 1775.13 91.9727V92.7021H1768.03V91.375H1773.5V91.252C1773.48 90.8301 1773.39 90.4199 1773.24 90.0215C1773.09 89.623 1772.86 89.2949 1772.54 89.0371C1772.21 88.7793 1771.78 88.6504 1771.22 88.6504C1770.85 88.6504 1770.51 88.7295 1770.2 88.8877C1769.89 89.04 1769.62 89.2686 1769.4 89.5732C1769.18 89.8779 1769 90.25 1768.88 90.6895C1768.76 91.1289 1768.7 91.6357 1768.7 92.21V92.5791C1768.7 93.0303 1768.76 93.4551 1768.88 93.8535C1769.01 94.2461 1769.19 94.5918 1769.43 94.8906C1769.68 95.1895 1769.98 95.4238 1770.32 95.5938C1770.67 95.7637 1771.07 95.8486 1771.52 95.8486C1772.09 95.8486 1772.58 95.7314 1772.98 95.4971C1773.38 95.2627 1773.72 94.9492 1774.02 94.5566L1775.01 95.3389C1774.8 95.6494 1774.54 95.9453 1774.22 96.2266C1773.91 96.5078 1773.52 96.7363 1773.06 96.9121C1772.6 97.0879 1772.06 97.1758 1771.43 97.1758ZM1779.44 95.3125L1781.88 87.4902H1782.95L1782.74 89.0459L1780.25 97H1779.21L1779.44 95.3125ZM1777.79 87.4902L1779.88 95.4004L1780.03 97H1778.93L1776.17 87.4902H1777.79ZM1785.29 95.3389L1787.28 87.4902H1788.89L1786.13 97H1785.04L1785.29 95.3389ZM1783.19 87.4902L1785.58 95.1807L1785.85 97H1784.82L1782.26 89.0283L1782.05 87.4902H1783.19ZM1796.1 94.4775C1796.1 94.2432 1796.05 94.0264 1795.94 93.8271C1795.84 93.6221 1795.63 93.4375 1795.32 93.2734C1795.01 93.1035 1794.54 92.957 1793.91 92.834C1793.38 92.7227 1792.91 92.5908 1792.48 92.4385C1792.06 92.2861 1791.7 92.1016 1791.4 91.8848C1791.11 91.668 1790.88 91.4131 1790.72 91.1201C1790.56 90.8271 1790.48 90.4844 1790.48 90.0918C1790.48 89.7168 1790.57 89.3623 1790.73 89.0283C1790.9 88.6943 1791.14 88.3984 1791.44 88.1406C1791.75 87.8828 1792.12 87.6807 1792.56 87.5342C1792.99 87.3877 1793.48 87.3145 1794.01 87.3145C1794.77 87.3145 1795.42 87.4492 1795.96 87.7188C1796.5 87.9883 1796.91 88.3486 1797.2 88.7998C1797.49 89.2451 1797.63 89.7402 1797.63 90.2852H1796C1796 90.0215 1795.92 89.7666 1795.77 89.5205C1795.61 89.2686 1795.39 89.0605 1795.09 88.8965C1794.8 88.7324 1794.44 88.6504 1794.01 88.6504C1793.56 88.6504 1793.19 88.7207 1792.91 88.8613C1792.63 88.9961 1792.43 89.1689 1792.3 89.3799C1792.18 89.5908 1792.12 89.8135 1792.12 90.0479C1792.12 90.2236 1792.15 90.3818 1792.21 90.5225C1792.27 90.6572 1792.38 90.7832 1792.54 90.9004C1792.7 91.0117 1792.92 91.1172 1793.21 91.2168C1793.5 91.3164 1793.86 91.416 1794.31 91.5156C1795.09 91.6914 1795.73 91.9023 1796.23 92.1484C1796.74 92.3945 1797.11 92.6963 1797.36 93.0537C1797.6 93.4111 1797.73 93.8447 1797.73 94.3545C1797.73 94.7705 1797.64 95.1514 1797.46 95.4971C1797.29 95.8428 1797.04 96.1416 1796.72 96.3936C1796.39 96.6396 1796.01 96.833 1795.56 96.9736C1795.11 97.1084 1794.61 97.1758 1794.05 97.1758C1793.21 97.1758 1792.51 97.0264 1791.93 96.7275C1791.35 96.4287 1790.91 96.042 1790.61 95.5674C1790.31 95.0928 1790.16 94.5918 1790.16 94.0645H1791.79C1791.82 94.5098 1791.95 94.8643 1792.18 95.1279C1792.42 95.3857 1792.7 95.5703 1793.04 95.6816C1793.38 95.7871 1793.72 95.8398 1794.05 95.8398C1794.5 95.8398 1794.87 95.7812 1795.17 95.6641C1795.47 95.5469 1795.71 95.3857 1795.86 95.1807C1796.02 94.9756 1796.1 94.7412 1796.1 94.4775ZM1801.63 83.5V97H1799.99V83.5H1801.63ZM1808.19 97.1758C1807.52 97.1758 1806.92 97.0645 1806.38 96.8418C1805.85 96.6133 1805.39 96.2939 1805 95.8838C1804.62 95.4736 1804.33 94.9873 1804.12 94.4248C1803.92 93.8623 1803.82 93.2471 1803.82 92.5791V92.21C1803.82 91.4365 1803.93 90.748 1804.16 90.1445C1804.39 89.5352 1804.7 89.0195 1805.09 88.5977C1805.48 88.1758 1805.93 87.8564 1806.43 87.6396C1806.93 87.4229 1807.44 87.3145 1807.97 87.3145C1808.65 87.3145 1809.24 87.4316 1809.73 87.666C1810.23 87.9004 1810.64 88.2285 1810.95 88.6504C1811.27 89.0664 1811.5 89.5586 1811.66 90.127C1811.81 90.6895 1811.89 91.3047 1811.89 91.9727V92.7021H1804.78V91.375H1810.26V91.252C1810.24 90.8301 1810.15 90.4199 1810 90.0215C1809.85 89.623 1809.62 89.2949 1809.29 89.0371C1808.97 88.7793 1808.53 88.6504 1807.97 88.6504C1807.61 88.6504 1807.27 88.7295 1806.96 88.8877C1806.64 89.04 1806.38 89.2686 1806.16 89.5732C1805.93 89.8779 1805.76 90.25 1805.64 90.6895C1805.51 91.1289 1805.45 91.6357 1805.45 92.21V92.5791C1805.45 93.0303 1805.51 93.4551 1805.64 93.8535C1805.77 94.2461 1805.95 94.5918 1806.19 94.8906C1806.44 95.1895 1806.73 95.4238 1807.08 95.5938C1807.43 95.7637 1807.83 95.8486 1808.27 95.8486C1808.85 95.8486 1809.33 95.7314 1809.73 95.4971C1810.13 95.2627 1810.48 94.9492 1810.78 94.5566L1811.76 95.3389C1811.56 95.6494 1811.3 95.9453 1810.98 96.2266C1810.66 96.5078 1810.27 96.7363 1809.81 96.9121C1809.35 97.0879 1808.81 97.1758 1808.19 97.1758ZM1817.77 87.4902V88.7383H1812.62V87.4902H1817.77ZM1814.36 85.1787H1815.99V94.6445C1815.99 94.9668 1816.04 95.21 1816.14 95.374C1816.24 95.5381 1816.37 95.6465 1816.53 95.6992C1816.68 95.752 1816.85 95.7783 1817.04 95.7783C1817.17 95.7783 1817.31 95.7666 1817.46 95.7432C1817.61 95.7139 1817.72 95.6904 1817.8 95.6729L1817.81 97C1817.68 97.041 1817.51 97.0791 1817.3 97.1143C1817.09 97.1553 1816.85 97.1758 1816.55 97.1758C1816.15 97.1758 1815.79 97.0967 1815.45 96.9385C1815.12 96.7803 1814.85 96.5166 1814.65 96.1475C1814.46 95.7725 1814.36 95.2686 1814.36 94.6357V85.1787ZM1823.65 87.4902V88.7383H1818.51V87.4902H1823.65ZM1820.25 85.1787H1821.88V94.6445C1821.88 94.9668 1821.93 95.21 1822.03 95.374C1822.13 95.5381 1822.26 95.6465 1822.42 95.6992C1822.57 95.752 1822.74 95.7783 1822.92 95.7783C1823.06 95.7783 1823.2 95.7666 1823.35 95.7432C1823.5 95.7139 1823.61 95.6904 1823.69 95.6729L1823.7 97C1823.57 97.041 1823.4 97.0791 1823.19 97.1143C1822.98 97.1553 1822.73 97.1758 1822.44 97.1758C1822.04 97.1758 1821.68 97.0967 1821.34 96.9385C1821.01 96.7803 1820.74 96.5166 1820.54 96.1475C1820.35 95.7725 1820.25 95.2686 1820.25 94.6357V85.1787ZM1829.51 97.1758C1828.85 97.1758 1828.25 97.0645 1827.71 96.8418C1827.17 96.6133 1826.71 96.2939 1826.33 95.8838C1825.95 95.4736 1825.65 94.9873 1825.45 94.4248C1825.24 93.8623 1825.14 93.2471 1825.14 92.5791V92.21C1825.14 91.4365 1825.25 90.748 1825.48 90.1445C1825.71 89.5352 1826.02 89.0195 1826.41 88.5977C1826.81 88.1758 1827.25 87.8564 1827.75 87.6396C1828.25 87.4229 1828.76 87.3145 1829.3 87.3145C1829.98 87.3145 1830.56 87.4316 1831.05 87.666C1831.55 87.9004 1831.96 88.2285 1832.28 88.6504C1832.59 89.0664 1832.83 89.5586 1832.98 90.127C1833.13 90.6895 1833.21 91.3047 1833.21 91.9727V92.7021H1826.11V91.375H1831.58V91.252C1831.56 90.8301 1831.47 90.4199 1831.32 90.0215C1831.17 89.623 1830.94 89.2949 1830.62 89.0371C1830.29 88.7793 1829.85 88.6504 1829.3 88.6504C1828.93 88.6504 1828.59 88.7295 1828.28 88.8877C1827.97 89.04 1827.7 89.2686 1827.48 89.5732C1827.25 89.8779 1827.08 90.25 1826.96 90.6895C1826.84 91.1289 1826.77 91.6357 1826.77 92.21V92.5791C1826.77 93.0303 1826.84 93.4551 1826.96 93.8535C1827.09 94.2461 1827.27 94.5918 1827.51 94.8906C1827.76 95.1895 1828.05 95.4238 1828.4 95.5938C1828.75 95.7637 1829.15 95.8486 1829.6 95.8486C1830.17 95.8486 1830.66 95.7314 1831.05 95.4971C1831.45 95.2627 1831.8 94.9492 1832.1 94.5566L1833.08 95.3389C1832.88 95.6494 1832.62 95.9453 1832.3 96.2266C1831.99 96.5078 1831.6 96.7363 1831.13 96.9121C1830.68 97.0879 1830.13 97.1758 1829.51 97.1758ZM1836.73 88.9844V97H1835.11V87.4902H1836.69L1836.73 88.9844ZM1839.7 87.4375L1839.69 88.9492C1839.56 88.9199 1839.43 88.9023 1839.31 88.8965C1839.19 88.8848 1839.06 88.8789 1838.9 88.8789C1838.53 88.8789 1838.2 88.9375 1837.91 89.0547C1837.62 89.1719 1837.38 89.3359 1837.18 89.5469C1836.98 89.7578 1836.82 90.0098 1836.71 90.3027C1836.59 90.5898 1836.52 90.9062 1836.49 91.252L1836.03 91.5156C1836.03 90.9414 1836.08 90.4023 1836.2 89.8984C1836.31 89.3945 1836.49 88.9492 1836.73 88.5625C1836.97 88.1699 1837.28 87.8652 1837.65 87.6484C1838.02 87.4258 1838.47 87.3145 1838.98 87.3145C1839.1 87.3145 1839.23 87.3291 1839.39 87.3584C1839.54 87.3818 1839.64 87.4082 1839.7 87.4375Z" fill="#36392D"/>
<mask id="path-6-inside-1_37_1425" fill="white">
<path d="M1641 101H1840V152H1641V101Z"/>
</mask>
<path d="M1840 151H1641V153H1840V151Z" fill="black" mask="url(#path-6-inside-1_37_1425)"/>
<path d="M1665.55 130.773V132H1659.52V130.773H1665.55ZM1659.83 120.625V132H1658.32V120.625H1659.83ZM1664.75 125.516V126.742H1659.52V125.516H1664.75ZM1665.47 120.625V121.859H1659.52V120.625H1665.47ZM1668.63 125.227V132H1667.18V123.547H1668.55L1668.63 125.227ZM1668.34 127.453L1667.66 127.43C1667.67 126.852 1667.74 126.318 1667.89 125.828C1668.04 125.333 1668.25 124.904 1668.54 124.539C1668.83 124.174 1669.18 123.893 1669.61 123.695C1670.04 123.492 1670.53 123.391 1671.09 123.391C1671.49 123.391 1671.85 123.448 1672.19 123.562C1672.52 123.672 1672.81 123.846 1673.05 124.086C1673.3 124.326 1673.49 124.633 1673.62 125.008C1673.76 125.383 1673.83 125.836 1673.83 126.367V132H1672.38V126.438C1672.38 125.995 1672.31 125.641 1672.16 125.375C1672.01 125.109 1671.8 124.917 1671.53 124.797C1671.26 124.672 1670.94 124.609 1670.58 124.609C1670.15 124.609 1669.79 124.685 1669.51 124.836C1669.22 124.987 1668.99 125.195 1668.82 125.461C1668.65 125.727 1668.52 126.031 1668.45 126.375C1668.37 126.714 1668.34 127.073 1668.34 127.453ZM1673.81 126.656L1672.84 126.953C1672.85 126.49 1672.92 126.044 1673.07 125.617C1673.22 125.19 1673.44 124.81 1673.72 124.477C1674.01 124.143 1674.36 123.88 1674.77 123.688C1675.19 123.49 1675.67 123.391 1676.2 123.391C1676.66 123.391 1677.06 123.451 1677.41 123.57C1677.76 123.69 1678.06 123.875 1678.3 124.125C1678.54 124.37 1678.73 124.685 1678.85 125.07C1678.98 125.456 1679.04 125.914 1679.04 126.445V132H1677.59V126.43C1677.59 125.956 1677.51 125.589 1677.36 125.328C1677.21 125.062 1677.01 124.878 1676.73 124.773C1676.47 124.664 1676.15 124.609 1675.78 124.609C1675.46 124.609 1675.18 124.664 1674.94 124.773C1674.69 124.883 1674.49 125.034 1674.32 125.227C1674.15 125.414 1674.03 125.63 1673.94 125.875C1673.85 126.12 1673.81 126.38 1673.81 126.656ZM1686.21 130.555V126.203C1686.21 125.87 1686.14 125.581 1686.01 125.336C1685.88 125.086 1685.68 124.893 1685.41 124.758C1685.15 124.622 1684.82 124.555 1684.43 124.555C1684.07 124.555 1683.74 124.617 1683.47 124.742C1683.2 124.867 1682.98 125.031 1682.83 125.234C1682.68 125.438 1682.6 125.656 1682.6 125.891H1681.16C1681.16 125.589 1681.23 125.289 1681.39 124.992C1681.55 124.695 1681.77 124.427 1682.06 124.188C1682.36 123.943 1682.71 123.75 1683.12 123.609C1683.54 123.464 1684.01 123.391 1684.52 123.391C1685.13 123.391 1685.67 123.495 1686.14 123.703C1686.61 123.911 1686.98 124.227 1687.25 124.648C1687.52 125.065 1687.66 125.589 1687.66 126.219V130.156C1687.66 130.438 1687.68 130.737 1687.73 131.055C1687.78 131.372 1687.85 131.646 1687.95 131.875V132H1686.45C1686.37 131.833 1686.32 131.612 1686.27 131.336C1686.23 131.055 1686.21 130.794 1686.21 130.555ZM1686.46 126.875L1686.48 127.891H1685.02C1684.6 127.891 1684.24 127.924 1683.91 127.992C1683.59 128.055 1683.32 128.151 1683.1 128.281C1682.88 128.411 1682.72 128.576 1682.6 128.773C1682.49 128.966 1682.43 129.193 1682.43 129.453C1682.43 129.719 1682.49 129.961 1682.61 130.18C1682.73 130.398 1682.91 130.573 1683.15 130.703C1683.39 130.828 1683.69 130.891 1684.05 130.891C1684.49 130.891 1684.88 130.797 1685.22 130.609C1685.56 130.422 1685.83 130.193 1686.02 129.922C1686.23 129.651 1686.34 129.388 1686.35 129.133L1686.97 129.828C1686.93 130.047 1686.83 130.289 1686.67 130.555C1686.51 130.82 1686.29 131.076 1686.02 131.32C1685.76 131.56 1685.44 131.76 1685.07 131.922C1684.71 132.078 1684.29 132.156 1683.84 132.156C1683.26 132.156 1682.76 132.044 1682.33 131.82C1681.9 131.596 1681.57 131.297 1681.33 130.922C1681.09 130.542 1680.98 130.117 1680.98 129.648C1680.98 129.195 1681.07 128.797 1681.24 128.453C1681.42 128.104 1681.67 127.815 1682.01 127.586C1682.34 127.352 1682.74 127.174 1683.21 127.055C1683.68 126.935 1684.2 126.875 1684.78 126.875H1686.46ZM1691.5 123.547V132H1690.05V123.547H1691.5ZM1689.94 121.305C1689.94 121.07 1690.01 120.872 1690.15 120.711C1690.29 120.549 1690.51 120.469 1690.79 120.469C1691.07 120.469 1691.28 120.549 1691.42 120.711C1691.57 120.872 1691.65 121.07 1691.65 121.305C1691.65 121.529 1691.57 121.721 1691.42 121.883C1691.28 122.039 1691.07 122.117 1690.79 122.117C1690.51 122.117 1690.29 122.039 1690.15 121.883C1690.01 121.721 1689.94 121.529 1689.94 121.305ZM1695.39 120V132H1693.94V120H1695.39Z" fill="#878F70"/>
<path d="M1061.67 214L1070.32 209L1061.67 204V214ZM1080.93 200.95C1081.15 201.733 1081.3 202.783 1081.4 204.117C1081.52 205.45 1081.57 206.6 1081.57 207.6L1081.67 209C1081.67 212.65 1081.4 215.333 1080.93 217.05C1080.52 218.55 1079.55 219.517 1078.05 219.933C1077.27 220.15 1075.83 220.3 1073.63 220.4C1071.47 220.517 1069.48 220.567 1067.65 220.567L1065 220.667C1058.02 220.667 1053.67 220.4 1051.95 219.933C1050.45 219.517 1049.48 218.55 1049.07 217.05C1048.85 216.267 1048.7 215.217 1048.6 213.883C1048.48 212.55 1048.43 211.4 1048.43 210.4L1048.33 209C1048.33 205.35 1048.6 202.667 1049.07 200.95C1049.48 199.45 1050.45 198.483 1051.95 198.067C1052.73 197.85 1054.17 197.7 1056.37 197.6C1058.53 197.483 1060.52 197.433 1062.35 197.433L1065 197.333C1071.98 197.333 1076.33 197.6 1078.05 198.067C1079.55 198.483 1080.52 199.45 1080.93 200.95Z" fill="#36392D"/>
<path d="M1017.67 199C1016.44 199.583 1015.12 199.967 1013.75 200.15C1015.15 199.267 1016.23 197.867 1016.74 196.183C1015.42 197.017 1013.95 197.6 1012.41 197.933C1011.15 196.5 1009.38 195.667 1007.37 195.667C1003.63 195.667 1000.57 198.867 1000.57 202.817C1000.57 203.383 1000.63 203.933 1000.75 204.45C995.073 204.15 990.022 201.3 986.66 196.983C986.07 198.033 985.736 199.267 985.736 200.567C985.736 203.05 986.931 205.25 988.779 206.5C987.648 206.5 986.596 206.167 985.672 205.667V205.717C985.672 209.183 988.03 212.083 991.153 212.733C990.15 213.02 989.098 213.06 988.078 212.85C988.511 214.271 989.358 215.514 990.501 216.405C991.645 217.296 993.026 217.789 994.451 217.817C992.035 219.817 989.04 220.899 985.959 220.883C985.417 220.883 984.875 220.85 984.333 220.783C987.361 222.817 990.962 224 994.818 224C1007.37 224 1014.27 213.1 1014.27 203.65C1014.27 203.333 1014.27 203.033 1014.26 202.717C1015.6 201.717 1016.74 200.45 1017.67 199Z" fill="#36392D"/>
<path d="M937 192.333C941.528 192.333 942.093 192.35 943.87 192.433C945.645 192.517 946.853 192.795 947.917 193.208C949.017 193.632 949.943 194.205 950.87 195.13C951.717 195.963 952.373 196.971 952.792 198.083C953.203 199.145 953.483 200.355 953.567 202.13C953.645 203.907 953.667 204.472 953.667 209C953.667 213.528 953.65 214.093 953.567 215.87C953.483 217.645 953.203 218.853 952.792 219.917C952.374 221.03 951.719 222.038 950.87 222.87C950.037 223.717 949.029 224.373 947.917 224.792C946.855 225.203 945.645 225.483 943.87 225.567C942.093 225.645 941.528 225.667 937 225.667C932.472 225.667 931.907 225.65 930.13 225.567C928.355 225.483 927.147 225.203 926.083 224.792C924.971 224.374 923.963 223.718 923.13 222.87C922.282 222.037 921.627 221.029 921.208 219.917C920.795 218.855 920.517 217.645 920.433 215.87C920.355 214.093 920.333 213.528 920.333 209C920.333 204.472 920.35 203.907 920.433 202.13C920.517 200.353 920.795 199.147 921.208 198.083C921.625 196.97 922.281 195.962 923.13 195.13C923.963 194.282 924.971 193.626 926.083 193.208C927.147 192.795 928.353 192.517 930.13 192.433C931.907 192.355 932.472 192.333 937 192.333ZM937 200.667C934.79 200.667 932.67 201.545 931.107 203.108C929.545 204.67 928.667 206.79 928.667 209C928.667 211.21 929.545 213.33 931.107 214.893C932.67 216.456 934.79 217.333 937 217.333C939.21 217.333 941.33 216.456 942.893 214.893C944.455 213.33 945.333 211.21 945.333 209C945.333 206.79 944.455 204.67 942.893 203.108C941.33 201.545 939.21 200.667 937 200.667ZM947.833 200.25C947.833 199.698 947.614 199.168 947.223 198.777C946.832 198.386 946.303 198.167 945.75 198.167C945.197 198.167 944.668 198.386 944.277 198.777C943.886 199.168 943.667 199.698 943.667 200.25C943.667 200.803 943.886 201.333 944.277 201.723C944.668 202.114 945.197 202.333 945.75 202.333C946.303 202.333 946.832 202.114 947.223 201.723C947.614 201.333 947.833 200.803 947.833 200.25ZM937 204C938.326 204 939.598 204.527 940.536 205.465C941.473 206.402 942 207.674 942 209C942 210.326 941.473 211.598 940.536 212.536C939.598 213.473 938.326 214 937 214C935.674 214 934.402 213.473 933.464 212.536C932.527 211.598 932 210.326 932 209C932 207.674 932.527 206.402 933.464 205.465C934.402 204.527 935.674 204 937 204Z" fill="#36392D"/>
<path d="M889.667 209.042C889.667 199.819 882.2 192.333 873 192.333C863.8 192.333 856.333 199.819 856.333 209.042C856.333 217.129 862.067 223.862 869.667 225.416V214.054H866.333V209.042H869.667V204.865C869.667 201.64 872.283 199.017 875.5 199.017H879.667V204.029H876.333C875.417 204.029 874.667 204.781 874.667 205.7V209.042H879.667V214.054H874.667V225.667C883.083 224.831 889.667 217.714 889.667 209.042Z" fill="#36392D"/>
<path d="M873.672 77.6C872.029 77.6 870.845 78.4747 870.12 80.224C869.416 81.9733 869.064 84.7253 869.064 88.48C869.064 92.2347 869.416 95.0293 870.12 96.864C870.845 98.6773 872.029 99.584 873.672 99.584C874.995 99.584 876.168 99.1573 877.192 98.304C878.237 97.4293 878.995 96.4373 879.464 95.328C879.955 94.1973 880.2 93.1307 880.2 92.128H880.872C880.723 94.6667 879.901 96.672 878.408 98.144C876.915 99.5947 875.144 100.32 873.096 100.32C869.405 100.32 866.621 99.264 864.744 97.152C862.888 95.0187 861.96 92.16 861.96 88.576C861.96 85.7173 862.824 83.1253 864.552 80.8C865.405 79.6693 866.557 78.752 868.008 78.048C869.459 77.344 871.101 76.992 872.936 76.992C874.067 76.992 875.123 77.184 876.104 77.568C877.107 77.9307 877.811 78.112 878.216 78.112C878.621 78.112 878.941 78.0267 879.176 77.856C879.432 77.664 879.635 77.376 879.784 76.992H880.2V86.08H879.784C879.571 85.3547 879.421 84.8427 879.336 84.544C879.251 84.224 879.08 83.7013 878.824 82.976C878.568 82.2507 878.344 81.7067 878.152 81.344C877.96 80.96 877.693 80.4907 877.352 79.936C877.011 79.36 876.68 78.9333 876.36 78.656C875.507 77.952 874.611 77.6 873.672 77.6ZM884.564 85.504H882.292V84.992H884.212C886.537 84.992 888.67 84.7893 890.612 84.384V99.2H892.596V99.712H882.58V99.2H884.564V85.504ZM887.572 83.04C886.74 83.04 886.025 82.752 885.428 82.176C884.852 81.5787 884.564 80.864 884.564 80.032C884.564 79.1787 884.852 78.464 885.428 77.888C886.025 77.2907 886.75 76.992 887.604 76.992C888.457 76.992 889.172 77.2907 889.748 77.888C890.324 78.464 890.612 79.1787 890.612 80.032C890.612 80.864 890.313 81.5787 889.716 82.176C889.14 82.752 888.425 83.04 887.572 83.04ZM901.354 98.048V99.712H893.322V99.2H895.306V78.112H893.034V77.6H894.954C897.28 77.6 899.413 77.3973 901.354 76.992V87.2H901.514C901.92 86.176 902.474 85.4507 903.178 85.024C903.904 84.5973 904.842 84.384 905.994 84.384C908 84.384 909.461 85.1307 910.378 86.624C911.317 88.096 911.786 89.9947 911.786 92.32C911.786 94.6453 911.253 96.5653 910.186 98.08C909.141 99.5733 907.616 100.32 905.61 100.32C903.626 100.32 902.261 99.5627 901.514 98.048H901.354ZM901.226 92.352V93.216C901.226 95.0933 901.472 96.5547 901.962 97.6C902.453 98.624 903.018 99.136 903.658 99.136C904.768 99.136 905.322 96.8747 905.322 92.352C905.322 90.0907 905.205 88.4373 904.97 87.392C904.757 86.3467 904.32 85.824 903.658 85.824C902.89 85.824 902.293 86.5067 901.866 87.872C901.44 89.216 901.226 90.7093 901.226 92.352ZM928.27 98.144C926.713 99.5947 924.675 100.32 922.158 100.32C919.641 100.32 917.603 99.5947 916.046 98.144C914.489 96.672 913.71 94.7413 913.71 92.352C913.71 89.9627 914.489 88.0427 916.046 86.592C917.603 85.12 919.641 84.384 922.158 84.384C924.675 84.384 926.713 85.12 928.27 86.592C929.827 88.0427 930.606 89.9627 930.606 92.352C930.606 94.7413 929.827 96.672 928.27 98.144ZM923.694 98.144C923.993 97.056 924.142 95.1253 924.142 92.352C924.142 89.5787 923.993 87.6587 923.694 86.592C923.417 85.504 922.905 84.96 922.158 84.96C921.411 84.96 920.889 85.504 920.59 86.592C920.313 87.6587 920.174 89.5787 920.174 92.352C920.174 95.1253 920.313 97.056 920.59 98.144C920.889 99.2107 921.411 99.744 922.158 99.744C922.905 99.744 923.417 99.2107 923.694 98.144ZM940.971 90.656C940.971 88.6507 941.685 87.104 943.115 86.016C944.544 84.928 946.283 84.384 948.331 84.384C948.992 84.384 949.643 84.448 950.283 84.576C949.749 83.9787 949.483 83.2533 949.483 82.4C949.483 81.5467 949.771 80.8107 950.347 80.192C950.944 79.5733 951.659 79.264 952.491 79.264C953.344 79.264 954.048 79.5093 954.603 80C955.157 80.4907 955.435 81.12 955.435 81.888C955.435 82.656 955.211 83.2853 954.763 83.776C954.315 84.2453 953.749 84.48 953.067 84.48C952.405 84.48 951.851 84.288 951.403 83.904C950.976 83.4987 950.763 82.9867 950.763 82.368C950.763 81.7493 950.976 81.2587 951.403 80.896C951.723 80.7467 951.883 80.576 951.883 80.384C951.883 80.192 951.787 80.096 951.595 80.096C951.467 80.096 951.307 80.16 951.115 80.288C950.411 80.8213 950.059 81.536 950.059 82.432C950.059 83.5627 950.709 84.4587 952.011 85.12C954.464 86.1867 955.691 88.032 955.691 90.656C955.691 92.6613 954.976 94.208 953.547 95.296C952.117 96.384 950.379 96.928 948.331 96.928C946.923 96.928 945.664 96.6827 944.555 96.192C943.189 96.768 942.507 97.3653 942.507 97.984C942.507 98.4107 942.677 98.6987 943.019 98.848C943.36 98.976 943.947 99.04 944.779 99.04C945.611 99.04 946.933 98.8267 948.747 98.4C950.581 97.9733 951.787 97.76 952.363 97.76C953.6 97.76 954.581 98.08 955.307 98.72C956.032 99.36 956.395 100.203 956.395 101.248C956.395 102.891 955.701 104.288 954.315 105.44C952.928 106.592 951.264 107.168 949.323 107.168C947.019 107.168 945.141 106.261 943.691 104.448C942.645 104.363 941.803 103.968 941.163 103.264C940.523 102.56 940.203 101.707 940.203 100.704C940.203 99.7227 940.523 98.7947 941.163 97.92C941.824 97.0453 942.741 96.352 943.915 95.84C941.952 94.7307 940.971 93.0027 940.971 90.656ZM947.595 96.16C947.808 96.288 948.053 96.352 948.331 96.352C948.608 96.352 948.843 96.288 949.035 96.16C949.248 96.0107 949.408 95.7867 949.515 95.488C949.643 95.168 949.739 94.8693 949.803 94.592C949.888 94.2933 949.941 93.8773 949.963 93.344C949.984 92.8107 949.995 92.384 949.995 92.064C950.016 91.744 950.027 91.2747 950.027 90.656C950.027 90.0373 950.016 89.568 949.995 89.248C949.995 88.928 949.984 88.5013 949.963 87.968C949.941 87.4347 949.888 87.0293 949.803 86.752C949.739 86.4533 949.643 86.1547 949.515 85.856C949.408 85.536 949.248 85.312 949.035 85.184C948.843 85.0347 948.608 84.96 948.331 84.96C948.053 84.96 947.808 85.0347 947.595 85.184C947.403 85.312 947.243 85.536 947.115 85.856C947.008 86.1547 946.912 86.4533 946.827 86.752C946.763 87.0293 946.72 87.4347 946.699 87.968C946.677 88.5013 946.656 88.928 946.635 89.248C946.635 89.568 946.635 90.0373 946.635 90.656C946.635 91.2747 946.635 91.744 946.635 92.064C946.656 92.384 946.677 92.8107 946.699 93.344C946.72 93.8773 946.763 94.2933 946.827 94.592C946.912 94.8693 947.008 95.168 947.115 95.488C947.243 95.7867 947.403 96.0107 947.595 96.16ZM952.171 103.232C951.573 103.232 950.315 103.424 948.395 103.808C946.475 104.192 945.173 104.405 944.491 104.448C945.685 105.877 947.296 106.592 949.323 106.592C950.432 106.592 951.467 106.368 952.427 105.92C953.408 105.493 953.899 104.992 953.899 104.416C953.899 103.627 953.323 103.232 952.171 103.232ZM975.017 99.2H977.002V99.712H968.97V97.216H968.81C967.978 99.3067 966.484 100.352 964.33 100.352C962.495 100.352 961.204 99.7867 960.458 98.656C959.711 97.504 959.338 95.872 959.338 93.76V85.504H957.066V84.992H958.986C961.226 84.992 963.316 84.7893 965.258 84.384V92.416C965.258 94.5707 965.354 96.128 965.546 97.088C965.738 98.0267 966.164 98.496 966.826 98.496C967.572 98.496 968.138 97.7707 968.522 96.32C968.906 94.848 969.098 93.1733 969.098 91.296V85.536H966.826V84.992H968.746C970.986 84.992 973.076 84.7893 975.017 84.384V99.2ZM1002.66 98.496C1003.47 98.496 1003.99 97.4293 1004.22 95.296L1004.8 95.36C1004.61 96.9387 1004.16 98.1653 1003.46 99.04C1002.75 99.8933 1001.71 100.32 1000.32 100.32C997.462 100.32 996.033 98.7627 996.033 95.648V85.44H994.369V84.992H995.265C996.779 84.992 998.006 84.5013 998.945 83.52C999.883 82.5173 1000.35 81.3547 1000.35 80.032C1000.35 78.7093 999.819 77.568 998.753 76.608C997.707 75.6267 996.107 75.136 993.953 75.136C991.819 75.136 990.198 75.6693 989.089 76.736C987.979 77.7813 987.425 78.9867 987.425 80.352C987.425 81.0133 987.574 81.6427 987.873 82.24C988.171 82.816 988.481 83.264 988.801 83.584C989.142 83.904 989.601 84.3093 990.177 84.8C990.774 85.2693 991.201 85.6213 991.457 85.856L989.281 84.928L989.313 84.832C987.606 83.5733 986.753 82.112 986.753 80.448C986.753 78.784 987.403 77.3867 988.705 76.256C990.006 75.104 991.745 74.528 993.921 74.528C996.587 74.528 998.614 75.3173 1000 76.896C1001.39 78.4533 1002.08 81.152 1002.08 84.992H1005.06V85.44H1002.08V97.184C1002.08 98.0587 1002.27 98.496 1002.66 98.496ZM991.009 86.112C990.753 85.856 990.294 85.6213 989.633 85.408C988.993 85.1733 988.203 85.056 987.265 85.056C986.326 85.056 985.547 85.2693 984.929 85.696C984.31 86.1013 984.001 86.6453 984.001 87.328C984.001 87.9893 984.31 88.576 984.929 89.088C985.547 89.5787 986.294 90.0267 987.169 90.432C988.043 90.816 988.918 91.2427 989.793 91.712C990.689 92.16 991.446 92.736 992.065 93.44C992.683 94.144 992.993 94.944 992.993 95.84C992.993 97.2053 992.289 98.2933 990.881 99.104C989.494 99.9147 987.403 100.32 984.609 100.32C983.35 100.32 982.07 100.096 980.769 99.648C980.107 99.4133 979.563 99.0507 979.137 98.56C978.731 98.048 978.529 97.4187 978.529 96.672C978.529 95.9253 978.774 95.2853 979.265 94.752C979.755 94.1973 980.385 93.92 981.153 93.92C981.921 93.92 982.539 94.144 983.009 94.592C983.478 95.0187 983.713 95.5733 983.713 96.256C983.713 96.9387 983.51 97.4933 983.105 97.92C982.721 98.3253 982.241 98.528 981.665 98.528C981.11 98.528 980.63 98.3253 980.225 97.92C980.182 97.8773 980.15 97.8453 980.129 97.824C980.107 97.7813 980.086 97.7493 980.065 97.728C980.043 97.7067 980.022 97.6853 980.001 97.664C979.915 97.6213 979.841 97.6 979.777 97.6C979.606 97.6 979.521 97.696 979.521 97.888C979.521 98.08 979.681 98.3147 980.001 98.592C980.342 98.8693 980.897 99.1253 981.665 99.36C982.433 99.5947 983.297 99.712 984.257 99.712C985.238 99.712 986.07 99.552 986.753 99.232C987.457 98.8907 987.809 98.4107 987.809 97.792C987.809 97.152 987.499 96.5653 986.881 96.032C986.262 95.4773 985.505 94.976 984.609 94.528C983.734 94.0587 982.849 93.5787 981.953 93.088C981.057 92.5973 980.299 92.0107 979.681 91.328C979.062 90.624 978.753 89.8667 978.753 89.056C978.753 87.712 979.371 86.6027 980.609 85.728C981.867 84.8533 983.819 84.416 986.465 84.416C988.427 84.416 989.899 84.7467 990.881 85.408C991.862 86.048 992.353 86.9013 992.353 87.968C992.353 88.7573 992.107 89.4293 991.617 89.984C991.126 90.5173 990.497 90.784 989.729 90.784C988.982 90.784 988.374 90.56 987.905 90.112C987.435 89.664 987.201 89.1093 987.201 88.448C987.201 87.7653 987.393 87.2107 987.777 86.784C988.161 86.3573 988.641 86.144 989.217 86.144C989.814 86.144 990.241 86.304 990.497 86.624C990.774 86.9227 990.977 87.072 991.105 87.072C991.297 87.072 991.393 86.976 991.393 86.784C991.393 86.592 991.265 86.368 991.009 86.112ZM1021.02 98.144C1019.46 99.5947 1017.43 100.32 1014.91 100.32C1012.39 100.32 1010.35 99.5947 1008.8 98.144C1007.24 96.672 1006.46 94.7413 1006.46 92.352C1006.46 89.9627 1007.24 88.0427 1008.8 86.592C1010.35 85.12 1012.39 84.384 1014.91 84.384C1017.43 84.384 1019.46 85.12 1021.02 86.592C1022.58 88.0427 1023.36 89.9627 1023.36 92.352C1023.36 94.7413 1022.58 96.672 1021.02 98.144ZM1016.44 98.144C1016.74 97.056 1016.89 95.1253 1016.89 92.352C1016.89 89.5787 1016.74 87.6587 1016.44 86.592C1016.17 85.504 1015.65 84.96 1014.91 84.96C1014.16 84.96 1013.64 85.504 1013.34 86.592C1013.06 87.6587 1012.92 89.5787 1012.92 92.352C1012.92 95.1253 1013.06 97.056 1013.34 98.144C1013.64 99.2107 1014.16 99.744 1014.91 99.744C1015.65 99.744 1016.17 99.2107 1016.44 98.144ZM1038.01 86.112C1037.75 85.856 1037.29 85.6213 1036.63 85.408C1035.99 85.1733 1035.2 85.056 1034.26 85.056C1033.33 85.056 1032.55 85.2693 1031.93 85.696C1031.31 86.1013 1031 86.6453 1031 87.328C1031 87.9893 1031.31 88.576 1031.93 89.088C1032.55 89.5787 1033.29 90.0267 1034.17 90.432C1035.04 90.816 1035.92 91.2427 1036.79 91.712C1037.69 92.16 1038.45 92.736 1039.06 93.44C1039.68 94.144 1039.99 94.944 1039.99 95.84C1039.99 97.2053 1039.29 98.2933 1037.88 99.104C1036.49 99.9147 1034.4 100.32 1031.61 100.32C1030.35 100.32 1029.07 100.096 1027.77 99.648C1027.11 99.4133 1026.56 99.0507 1026.14 98.56C1025.73 98.048 1025.53 97.4187 1025.53 96.672C1025.53 95.9253 1025.77 95.2853 1026.26 94.752C1026.76 94.1973 1027.38 93.92 1028.15 93.92C1028.92 93.92 1029.54 94.144 1030.01 94.592C1030.48 95.0187 1030.71 95.5733 1030.71 96.256C1030.71 96.9387 1030.51 97.4933 1030.1 97.92C1029.72 98.3253 1029.24 98.528 1028.66 98.528C1028.11 98.528 1027.63 98.3253 1027.22 97.92C1027.18 97.8773 1027.15 97.8453 1027.13 97.824C1027.11 97.7813 1027.09 97.7493 1027.06 97.728C1027.04 97.7067 1027.02 97.6853 1027 97.664C1026.92 97.6213 1026.84 97.6 1026.78 97.6C1026.61 97.6 1026.52 97.696 1026.52 97.888C1026.52 98.08 1026.68 98.3147 1027 98.592C1027.34 98.8693 1027.9 99.1253 1028.66 99.36C1029.43 99.5947 1030.3 99.712 1031.26 99.712C1032.24 99.712 1033.07 99.552 1033.75 99.232C1034.46 98.8907 1034.81 98.4107 1034.81 97.792C1034.81 97.152 1034.5 96.5653 1033.88 96.032C1033.26 95.4773 1032.5 94.976 1031.61 94.528C1030.73 94.0587 1029.85 93.5787 1028.95 93.088C1028.06 92.5973 1027.3 92.0107 1026.68 91.328C1026.06 90.624 1025.75 89.8667 1025.75 89.056C1025.75 87.712 1026.37 86.6027 1027.61 85.728C1028.87 84.8533 1030.82 84.416 1033.46 84.416C1035.43 84.416 1036.9 84.7467 1037.88 85.408C1038.86 86.048 1039.35 86.9013 1039.35 87.968C1039.35 88.7573 1039.11 89.4293 1038.62 89.984C1038.13 90.5173 1037.5 90.784 1036.73 90.784C1035.98 90.784 1035.37 90.56 1034.9 90.112C1034.44 89.664 1034.2 89.1093 1034.2 88.448C1034.2 87.7653 1034.39 87.2107 1034.78 86.784C1035.16 86.3573 1035.64 86.144 1036.22 86.144C1036.81 86.144 1037.24 86.304 1037.5 86.624C1037.77 86.9227 1037.98 87.072 1038.1 87.072C1038.3 87.072 1038.39 86.976 1038.39 86.784C1038.39 86.592 1038.26 86.368 1038.01 86.112ZM1056.46 98.144C1054.9 99.5947 1052.86 100.32 1050.35 100.32C1047.83 100.32 1045.79 99.5947 1044.23 98.144C1042.68 96.672 1041.9 94.7413 1041.9 92.352C1041.9 89.9627 1042.68 88.0427 1044.23 86.592C1045.79 85.12 1047.83 84.384 1050.35 84.384C1052.86 84.384 1054.9 85.12 1056.46 86.592C1058.01 88.0427 1058.79 89.9627 1058.79 92.352C1058.79 94.7413 1058.01 96.672 1056.46 98.144ZM1051.88 98.144C1052.18 97.056 1052.33 95.1253 1052.33 92.352C1052.33 89.5787 1052.18 87.6587 1051.88 86.592C1051.6 85.504 1051.09 84.96 1050.35 84.96C1049.6 84.96 1049.08 85.504 1048.78 86.592C1048.5 87.6587 1048.36 89.5787 1048.36 92.352C1048.36 95.1253 1048.5 97.056 1048.78 98.144C1049.08 99.2107 1049.6 99.744 1050.35 99.744C1051.09 99.744 1051.6 99.2107 1051.88 98.144Z" fill="#36392D"/>
</svg>
