<svg width="875" height="164" viewBox="0 0 875 164" fill="none" xmlns="http://www.w3.org/2000/svg">
<path d="M15.04 53.6V31.44L14.48 22.48H15.52L18.56 31.44L26.56 50.4H44.8L52.8 31.44L55.84 22.48H56.88L56.32 31.44V53.6H71.36V4.76837e-06H50.96L41.6 22.24L36.56 36.08H35.52L30.24 22.24L20.4 4.76837e-06H-1.43051e-06V53.6H15.04ZM89.2119 54.4C97.9319 54.4 102.892 50.8 104.412 45.12H105.212V53.6H119.292V30.64C119.292 19.36 112.492 12.48 98.4119 12.48C84.7319 12.48 75.7719 19.36 75.7719 30.08V30.24H90.8119V29.92C90.8119 26.56 92.3319 25.6 97.2919 25.6C102.652 25.6 104.412 26.24 104.412 30.32V31.12L88.0119 32.72C78.8919 33.6 74.9719 37.68 74.9719 43.36C74.9719 50.24 80.0919 54.4 89.2119 54.4ZM90.0919 42.4C90.0919 41.52 90.6519 41.04 92.0119 40.88L104.332 39.44C103.932 43.04 100.972 43.92 93.6919 43.92C91.3719 43.92 90.0919 43.68 90.0919 42.4ZM142.07 54.4C151.51 54.4 156.31 50.72 157.59 42.72H158.39V53.6H172.47V4.76837e-06H157.43V23.68H156.63C155.43 16.96 150.95 12.48 141.43 12.48C129.59 12.48 122.95 20.32 122.95 33.44C122.95 46.48 129.75 54.4 142.07 54.4ZM138.15 33.44C138.15 28.08 140.55 26.16 147.51 26.16C154.23 26.16 157.43 27.28 157.43 32.96V33.52C157.43 39.36 154.23 40.64 147.51 40.64C140.55 40.64 138.15 38.8 138.15 33.44ZM199.746 54.4C213.346 54.4 221.906 48.08 221.906 39.12V38.16H206.866V39.04C206.866 41.44 205.266 42.48 199.186 42.48C192.786 42.48 190.626 41.12 190.386 36.24H221.986C222.146 34.8 222.226 33.76 222.226 32.4C222.226 19.44 213.346 12.48 199.426 12.48C185.986 12.48 176.466 20.32 176.466 33.44C176.466 48.56 186.066 54.4 199.746 54.4ZM199.106 24C204.706 24 207.106 25.2 207.666 28.64H190.626C191.266 25.2 193.586 24 199.106 24ZM251.502 53.6V42.72H252.302C253.582 50.72 258.382 54.4 267.822 54.4C280.142 54.4 286.942 46.48 286.942 33.44C286.942 20.32 280.302 12.48 268.462 12.48C258.942 12.48 254.462 16.96 253.262 23.68H252.462V4.76837e-06H237.422V53.6H251.502ZM252.462 33.52V32.96C252.462 27.28 255.662 26.16 262.382 26.16C269.342 26.16 271.742 28.08 271.742 33.44C271.742 38.8 269.342 40.64 262.382 40.64C255.662 40.64 252.462 39.36 252.462 33.52ZM299.817 67.2C311.577 67.2 317.737 64.72 322.058 55.2L341.178 13.28H324.377L318.378 28.96L315.737 38.4H314.698L311.817 29.12L304.857 13.28H287.737L307.017 53.12C306.377 53.44 305.417 53.6 304.217 53.6H292.537V67.2H299.817ZM369.024 53.6V4.76837e-06H353.984V53.6H369.024ZM403.988 53.6V40.08H396.788C393.348 40.08 392.388 39.28 392.388 36.08V25.6H403.988V13.28H392.388V6.32H377.348V13.28H371.428V25.6H377.348V38.24C377.348 48.72 383.348 53.6 393.428 53.6H403.988ZM420.618 54.4C429.338 54.4 434.298 50.8 435.818 45.12H436.618V53.6H450.698V30.64C450.698 19.36 443.898 12.48 429.818 12.48C416.138 12.48 407.178 19.36 407.178 30.08V30.24H422.218V29.92C422.218 26.56 423.738 25.6 428.698 25.6C434.058 25.6 435.818 26.24 435.818 30.32V31.12L419.418 32.72C410.298 33.6 406.378 37.68 406.378 43.36C406.378 50.24 411.498 54.4 420.618 54.4ZM421.498 42.4C421.498 41.52 422.058 41.04 423.418 40.88L435.738 39.44C435.338 43.04 432.378 43.92 425.098 43.92C422.778 43.92 421.498 43.68 421.498 42.4ZM470.196 53.6V4.76837e-06H455.156V53.6H470.196ZM490.04 9.60001V4.76837e-06H475V9.60001H490.04ZM490.04 53.6V13.28H475V53.6H490.04ZM507.884 54.4C516.604 54.4 521.564 50.8 523.084 45.12H523.884V53.6H537.964V30.64C537.964 19.36 531.164 12.48 517.084 12.48C503.404 12.48 494.444 19.36 494.444 30.08V30.24H509.484V29.92C509.484 26.56 511.004 25.6 515.964 25.6C521.324 25.6 523.084 26.24 523.084 30.32V31.12L506.684 32.72C497.564 33.6 493.644 37.68 493.644 43.36C493.644 50.24 498.764 54.4 507.884 54.4ZM508.764 42.4C508.764 41.52 509.324 41.04 510.684 40.88L523.004 39.44C522.604 43.04 519.644 43.92 512.364 43.92C510.044 43.92 508.764 43.68 508.764 42.4ZM557.462 53.6V32.8C557.462 27.6 559.062 25.92 565.702 25.92C572.262 25.92 574.342 27.68 574.342 33.28V53.6H589.382V27.76C589.382 19.04 584.262 12.48 573.382 12.48C562.582 12.48 558.182 18.8 557.302 25.52H556.502V13.28H542.422V53.6H557.462ZM615.508 54.4C628.868 54.4 636.388 48.96 636.388 41.44C636.388 34.64 632.628 30.72 620.868 29.44L612.868 28.56C608.148 28.08 607.508 27.52 607.508 26.4C607.508 24.88 608.148 24.24 613.028 24.24C619.108 24.24 619.908 25.2 619.908 27.28V27.76H634.948V27.44C634.948 17.52 627.508 12.48 613.508 12.48C598.388 12.48 592.708 18.64 592.708 25.76C592.708 32.56 597.188 36.48 605.508 37.36L617.188 38.64C620.948 39.04 621.588 39.36 621.588 40.64C621.588 42 620.788 42.56 615.588 42.56C610.148 42.56 608.708 42.32 608.708 40.08V39.28H593.668V39.6C593.668 48.88 601.268 54.4 615.508 54.4ZM659.52 53.6V38.24H640V53.6H659.52ZM47.6 149.6V136.08H15.04V129.36H46.4V115.92H15.04V109.52H47.6V96H-1.43051e-06V149.6H47.6ZM66.915 149.6V128.8C66.915 123.6 68.515 121.92 75.155 121.92C81.715 121.92 83.795 123.68 83.795 129.28V149.6H98.835V123.76C98.835 115.04 93.715 108.48 82.835 108.48C72.035 108.48 67.635 114.8 66.755 121.52H65.955V109.28H51.875V149.6H66.915ZM118.321 105.6V96H103.281V105.6H118.321ZM100.241 163.2C111.761 163.2 118.321 159.76 118.321 147.04V109.28H103.281V149.28C103.281 151.44 102.321 152.16 100.321 152.16H98.8012V163.2H100.241ZM145.445 150.4C159.445 150.4 168.965 142.48 168.965 129.44C168.965 116.32 159.445 108.48 145.445 108.48C131.445 108.48 121.925 116.32 121.925 129.44C121.925 142.48 131.445 150.4 145.445 150.4ZM145.445 137.12C138.645 137.12 136.805 135.28 136.805 129.44C136.805 123.6 138.645 121.68 145.445 121.68C152.245 121.68 154.085 123.6 154.085 129.44C154.085 135.28 152.245 137.12 145.445 137.12ZM181.458 163.2C193.218 163.2 199.378 160.72 203.698 151.2L222.818 109.28H206.018L200.018 124.96L197.378 134.4H196.338L193.458 125.12L186.498 109.28H169.378L188.658 149.12C188.018 149.44 187.058 149.6 185.858 149.6H174.178V163.2H181.458ZM246.933 150.4C260.533 150.4 269.093 144.08 269.093 135.12V134.16H254.053V135.04C254.053 137.44 252.453 138.48 246.373 138.48C239.973 138.48 237.813 137.12 237.573 132.24H269.173C269.333 130.8 269.413 129.76 269.413 128.4C269.413 115.44 260.533 108.48 246.613 108.48C233.173 108.48 223.653 116.32 223.653 129.44C223.653 144.56 233.253 150.4 246.933 150.4ZM246.293 120C251.893 120 254.293 121.2 254.853 124.64H237.813C238.453 121.2 240.773 120 246.293 120ZM291.757 150.4C301.197 150.4 305.997 146.72 307.277 138.72H308.078V149.6H322.158V96H307.118V119.68H306.317C305.118 112.96 300.637 108.48 291.117 108.48C279.277 108.48 272.637 116.32 272.637 129.44C272.637 142.48 279.437 150.4 291.757 150.4ZM287.837 129.44C287.837 124.08 290.237 122.16 297.198 122.16C303.917 122.16 307.118 123.28 307.118 128.96V129.52C307.118 135.36 303.917 136.64 297.198 136.64C290.237 136.64 287.837 134.8 287.837 129.44ZM352.205 149.6V138.72H353.005C354.285 146.72 359.085 150.4 368.525 150.4C380.845 150.4 387.645 142.48 387.645 129.44C387.645 116.32 381.005 108.48 369.165 108.48C359.645 108.48 355.165 112.96 353.965 119.68H353.165V96H338.125V149.6H352.205ZM353.165 129.52V128.96C353.165 123.28 356.365 122.16 363.085 122.16C370.045 122.16 372.445 124.08 372.445 129.44C372.445 134.8 370.045 136.64 363.085 136.64C356.365 136.64 353.165 135.36 353.165 129.52ZM400.521 163.2C412.281 163.2 418.441 160.72 422.761 151.2L441.881 109.28H425.081L419.081 124.96L416.441 134.4H415.401L412.521 125.12L405.561 109.28H388.441L407.721 149.12C407.081 149.44 406.121 149.6 404.921 149.6H393.241V163.2H400.521ZM502.287 149.6V136.08H469.727V129.36H501.087V115.92H469.727V109.52H502.287V96H454.687V149.6H502.287ZM540.243 149.6L558.323 109.28H541.842L531.682 134.96H530.643L520.562 109.28H503.762L521.682 149.6H540.243ZM582.793 150.4C596.393 150.4 604.952 144.08 604.952 135.12V134.16H589.912V135.04C589.912 137.44 588.313 138.48 582.233 138.48C575.832 138.48 573.672 137.12 573.432 132.24H605.033C605.193 130.8 605.272 129.76 605.272 128.4C605.272 115.44 596.393 108.48 582.472 108.48C569.032 108.48 559.512 116.32 559.512 129.44C559.512 144.56 569.112 150.4 582.793 150.4ZM582.152 120C587.753 120 590.153 121.2 590.713 124.64H573.672C574.312 121.2 576.632 120 582.152 120ZM624.337 149.6V125.52C624.337 122.32 625.537 121.12 629.617 121.12C633.537 121.12 634.817 122.32 634.817 125.68V130.4H649.857V122.4C649.857 114.32 646.337 108.48 637.457 108.48C629.457 108.48 625.297 113.2 624.177 119.84H623.377V109.28H609.297V149.6H624.337ZM661.927 163.2C673.687 163.2 679.847 160.72 684.167 151.2L703.287 109.28H686.487L680.487 124.96L677.847 134.4H676.807L673.927 125.12L666.967 109.28H649.847L669.127 149.12C668.487 149.44 667.527 149.6 666.327 149.6H654.647V163.2H661.927ZM727.242 150.4C741.242 150.4 750.762 142.48 750.762 129.44C750.762 116.32 741.242 108.48 727.242 108.48C713.242 108.48 703.722 116.32 703.722 129.44C703.722 142.48 713.242 150.4 727.242 150.4ZM727.242 137.12C720.442 137.12 718.602 135.28 718.602 129.44C718.602 123.6 720.442 121.68 727.242 121.68C734.042 121.68 735.882 123.6 735.882 129.44C735.882 135.28 734.042 137.12 727.242 137.12ZM769.415 149.6V128.8C769.415 123.6 771.015 121.92 777.655 121.92C784.215 121.92 786.295 123.68 786.295 129.28V149.6H801.335V123.76C801.335 115.04 796.215 108.48 785.335 108.48C774.535 108.48 770.135 114.8 769.255 121.52H768.455V109.28H754.375V149.6H769.415ZM828.261 150.4C841.861 150.4 850.421 144.08 850.421 135.12V134.16H835.381V135.04C835.381 137.44 833.781 138.48 827.701 138.48C821.301 138.48 819.141 137.12 818.901 132.24H850.501C850.661 130.8 850.741 129.76 850.741 128.4C850.741 115.44 841.861 108.48 827.941 108.48C814.501 108.48 804.981 116.32 804.981 129.44C804.981 144.56 814.581 150.4 828.261 150.4ZM827.621 120C833.221 120 835.621 121.2 836.181 124.64H819.141C819.781 121.2 822.101 120 827.621 120ZM874.286 149.6V134.24H854.766V149.6H874.286Z" fill="#CFD2C6"/>
</svg>
