<svg width="20" height="8" viewBox="0 0 20 8" fill="none" xmlns="http://www.w3.org/2000/svg">
<path fill-rule="evenodd" clip-rule="evenodd" d="M5.10787 0.251942C5.35571 0.550406 5.31743 0.995601 5.02237 1.24637L2.61305 3.29412H19.3023C19.6876 3.29412 20 3.61021 20 4C20 4.38979 19.6876 4.70588 19.3023 4.70588H2.61305L5.02237 6.75363C5.31743 7.0044 5.35571 7.44959 5.10787 7.74806C4.86003 8.04662 4.41998 8.08534 4.12492 7.83456L0.259323 4.54932C0.240296 4.53366 0.221987 4.51697 0.204381 4.49917C0.146722 4.44095 0.101018 4.3745 0.0675417 4.30327C0.0580348 4.28306 0.0495088 4.26247 0.0420442 4.24167C0.0281585 4.2035 0.0176056 4.1637 0.0105447 4.12274C0.00350006 4.08212 0 4.04096 0 4C0 3.95904 0.00350006 3.91788 0.0105447 3.87726C0.0176056 3.8363 0.0281585 3.7965 0.0420442 3.75833C0.0495088 3.73753 0.0580348 3.71694 0.0675417 3.69673C0.101018 3.6255 0.146722 3.55906 0.204332 3.50083C0.221938 3.48303 0.240296 3.46634 0.259323 3.45068L4.12492 0.165439C4.41998 -0.0853428 4.86003 -0.0466216 5.10787 0.251942ZM0.233359 4.52689C0.239774 4.53265 0.246292 4.53828 0.252911 4.5438L0.233359 4.52689Z" fill="#36392D"/>
</svg>
