<svg width="20" height="8" viewBox="0 0 20 8" fill="none" xmlns="http://www.w3.org/2000/svg">
<path fill-rule="evenodd" clip-rule="evenodd" d="M14.8921 0.251942C14.6443 0.550406 14.6826 0.995601 14.9776 1.24637L17.387 3.29412H0.697674C0.312378 3.29412 0 3.61021 0 4C0 4.38979 0.312378 4.70588 0.697674 4.70588H17.387L14.9776 6.75363C14.6826 7.0044 14.6443 7.44959 14.8921 7.74806C15.14 8.04662 15.58 8.08534 15.8751 7.83456L19.7407 4.54932C19.7597 4.53366 19.778 4.51697 19.7956 4.49917C19.8533 4.44095 19.899 4.3745 19.9325 4.30327C19.942 4.28306 19.9505 4.26247 19.958 4.24167C19.9718 4.2035 19.9824 4.1637 19.9895 4.12274C19.9965 4.08212 20 4.04096 20 4C20 3.95904 19.9965 3.91788 19.9895 3.87726C19.9824 3.8363 19.9718 3.7965 19.958 3.75833C19.9505 3.73753 19.942 3.71694 19.9325 3.69673C19.899 3.6255 19.8533 3.55906 19.7957 3.50083C19.7781 3.48303 19.7597 3.46634 19.7407 3.45068L15.8751 0.165439C15.58 -0.0853428 15.14 -0.0466216 14.8921 0.251942ZM19.7666 4.52689C19.7602 4.53265 19.7537 4.53828 19.7471 4.5438L19.7666 4.52689Z" fill="#36392D"/>
</svg>
