<svg width="302" height="45" viewBox="0 0 302 45" fill="none" xmlns="http://www.w3.org/2000/svg">
<path d="M23.744 44.16C39.04 44.16 47.744 35.456 47.744 22.08C47.744 8.70402 39.04 1.90735e-05 23.744 1.90735e-05C8.832 1.90735e-05 1.3113e-06 8.70402 1.3113e-06 22.08C1.3113e-06 35.456 8.832 44.16 23.744 44.16ZM23.744 32.64C15.04 32.64 12.8 30.592 12.8 22.08C12.8 13.568 15.04 11.52 23.744 11.52C32.448 11.52 34.944 13.568 34.944 22.08C34.944 30.592 32.448 32.64 23.744 32.64ZM64.2005 44.16C72.9685 44.16 76.5525 39.104 77.2565 33.728H77.8965V43.52H89.1605V11.264H77.1285V27.904C77.1285 32.064 75.7845 33.408 70.2165 33.408C64.7125 33.408 62.9845 32 62.9845 27.52V11.264H50.9525V31.936C50.9525 38.912 55.1765 44.16 64.2005 44.16ZM104.797 43.52V24.256C104.797 21.696 105.757 20.736 109.021 20.736C112.157 20.736 113.181 21.696 113.181 24.384V28.16H125.213V21.76C125.213 15.296 122.397 10.624 115.293 10.624C108.893 10.624 105.565 14.4 104.669 19.712H104.029V11.264H92.765V43.52H104.797ZM160.831 43.52V32.704H155.071C152.319 32.704 151.551 32.064 151.551 29.504V21.12H160.831V11.264H151.551V5.69602H139.519V11.264H134.783V21.12H139.519V31.232C139.519 39.616 144.319 43.52 152.383 43.52H160.831ZM181.687 44.16C192.567 44.16 199.415 39.104 199.415 31.936V31.168H187.383V31.872C187.383 33.792 186.103 34.624 181.239 34.624C176.119 34.624 174.391 33.536 174.199 29.632H199.479C199.607 28.48 199.671 27.648 199.671 26.56C199.671 16.192 192.567 10.624 181.431 10.624C170.679 10.624 163.063 16.896 163.063 27.392C163.063 39.488 170.743 44.16 181.687 44.16ZM181.175 19.84C185.655 19.84 187.575 20.8 188.023 23.552H174.391C174.903 20.8 176.759 19.84 181.175 19.84ZM213.322 44.16C220.298 44.16 224.266 41.28 225.482 36.736H226.122V43.52H237.386V25.152C237.386 16.128 231.946 10.624 220.682 10.624C209.738 10.624 202.57 16.128 202.57 24.704V24.832H214.602V24.576C214.602 21.888 215.818 21.12 219.786 21.12C224.074 21.12 225.482 21.632 225.482 24.896V25.536L212.362 26.816C205.066 27.52 201.93 30.784 201.93 35.328C201.93 40.832 206.026 44.16 213.322 44.16ZM214.026 34.56C214.026 33.856 214.474 33.472 215.562 33.344L225.418 32.192C225.098 35.072 222.73 35.776 216.906 35.776C215.05 35.776 214.026 35.584 214.026 34.56ZM252.985 43.52V26.88C252.985 22.72 254.009 21.376 258.937 21.376C263.929 21.376 265.209 22.784 265.209 27.264V43.52H277.241V26.88C277.241 22.72 278.265 21.376 283.193 21.376C288.185 21.376 289.465 22.784 289.465 27.264V43.52H301.497V22.848C301.497 15.872 297.593 10.624 289.337 10.624C280.953 10.624 277.881 15.68 277.177 21.056H276.537C275.897 15.232 272.249 10.624 264.633 10.624C256.505 10.624 253.561 15.68 252.857 21.056H252.217V11.264H240.953V43.52H252.985Z" fill="#36392D"/>
</svg>
