<svg width="291" height="28" viewBox="0 0 291 28" fill="none" xmlns="http://www.w3.org/2000/svg">
<path d="M11.84 22.0798C19.04 22.0798 23.36 18.6558 23.36 12.9278V12.3838H16.64V12.9278C16.64 15.3598 15.488 16.3198 11.936 16.3198C7.58399 16.3198 6.39999 15.2958 6.39999 11.0398C6.39999 6.78376 7.58399 5.75977 11.936 5.75977C15.488 5.75977 16.64 6.71976 16.64 9.15176V9.69577H23.36V9.15176C23.36 3.42377 19.04 -0.000234604 11.84 -0.000234604C4.38399 -0.000234604 -1.46031e-05 4.35176 -1.46031e-05 11.0398C-1.46031e-05 17.7278 4.38399 22.0798 11.84 22.0798ZM33.873 22.0798C39.473 22.0798 43.281 18.9118 43.281 13.6958C43.281 8.44777 39.473 5.31177 33.873 5.31177C28.273 5.31177 24.465 8.44777 24.465 13.6958C24.465 18.9118 28.273 22.0798 33.873 22.0798ZM33.873 16.7678C31.153 16.7678 30.417 16.0318 30.417 13.6958C30.417 11.3598 31.153 10.5918 33.873 10.5918C36.593 10.5918 37.329 11.3598 37.329 13.6958C37.329 16.0318 36.593 16.7678 33.873 16.7678ZM50.7422 21.7598V12.1278C50.7422 10.8478 51.2222 10.3678 52.8542 10.3678C54.4222 10.3678 54.9342 10.8478 54.9342 12.1918V14.0798H60.9502V10.8798C60.9502 7.64777 59.5422 5.31177 55.9902 5.31177C52.7902 5.31177 51.1262 7.19977 50.6782 9.85577H50.3582V5.63177H44.7262V21.7598H50.7422ZM68.2422 27.1998V17.5998H68.5622C69.0422 20.2878 70.8342 22.0798 74.6422 22.0798C79.3782 22.0798 82.0342 18.9438 82.0342 13.6958C82.0342 8.47976 79.3142 5.31177 74.3862 5.31177C70.6102 5.31177 68.6902 6.78376 68.1782 9.98376H67.8582V5.63177H62.2262V27.1998H68.2422ZM68.2422 13.8878V13.6638C68.2422 11.3278 69.5222 10.8158 72.2102 10.8158C74.9942 10.8158 75.9542 11.5518 75.9542 13.6958C75.9542 15.8398 74.9942 16.6078 72.2102 16.6078C69.5222 16.6078 68.2422 16.1598 68.2422 13.8878ZM92.5605 22.0798C98.1605 22.0798 101.968 18.9118 101.968 13.6958C101.968 8.44777 98.1605 5.31177 92.5605 5.31177C86.9605 5.31177 83.1525 8.44777 83.1525 13.6958C83.1525 18.9118 86.9605 22.0798 92.5605 22.0798ZM92.5605 16.7678C89.8405 16.7678 89.1045 16.0318 89.1045 13.6958C89.1045 11.3598 89.8405 10.5918 92.5605 10.5918C95.2805 10.5918 96.0165 11.3598 96.0165 13.6958C96.0165 16.0318 95.2805 16.7678 92.5605 16.7678ZM109.43 21.7598V12.1278C109.43 10.8478 109.91 10.3678 111.542 10.3678C113.11 10.3678 113.622 10.8478 113.622 12.1918V14.0798H119.638V10.8798C119.638 7.64777 118.23 5.31177 114.678 5.31177C111.478 5.31177 109.814 7.19977 109.366 9.85577H109.046V5.63177H103.414V21.7598H109.43ZM126.13 22.0798C129.618 22.0798 131.602 20.6398 132.21 18.3678H132.53V21.7598H138.162V12.5758C138.162 8.06376 135.442 5.31177 129.81 5.31177C124.338 5.31177 120.754 8.06376 120.754 12.3518V12.4158H126.77V12.2878C126.77 10.9438 127.378 10.5598 129.362 10.5598C131.506 10.5598 132.21 10.8158 132.21 12.4478V12.7678L125.65 13.4078C122.002 13.7598 120.434 15.3918 120.434 17.6638C120.434 20.4158 122.482 22.0798 126.13 22.0798ZM126.482 17.2798C126.482 16.9278 126.706 16.7358 127.25 16.6718L132.178 16.0958C132.018 17.5358 130.834 17.8878 127.922 17.8878C126.994 17.8878 126.482 17.7918 126.482 17.2798ZM152.009 21.7598V16.3518H149.129C147.753 16.3518 147.369 16.0318 147.369 14.7518V10.5598H152.009V5.63177H147.369V2.84776H141.353V5.63177H138.985V10.5598H141.353V15.6158C141.353 19.8078 143.753 21.7598 147.785 21.7598H152.009ZM162.437 22.0798C167.877 22.0798 171.301 19.5518 171.301 15.9678V15.5838H165.285V15.9358C165.285 16.8958 164.645 17.3118 162.213 17.3118C159.653 17.3118 158.789 16.7678 158.693 14.8158H171.333C171.397 14.2398 171.429 13.8238 171.429 13.2798C171.429 8.09577 167.877 5.31177 162.309 5.31177C156.933 5.31177 153.125 8.44777 153.125 13.6958C153.125 19.7438 156.965 22.0798 162.437 22.0798ZM162.181 9.91977C164.421 9.91977 165.381 10.3998 165.605 11.7758H158.789C159.045 10.3998 159.973 9.91977 162.181 9.91977ZM196.547 21.7598V16.3518H183.523V13.6638H196.067V8.28776H183.523V5.72776H196.547V0.319765H177.507V21.7598H196.547ZM211.729 21.7598L218.961 5.63177H212.369L208.305 15.9038H207.889L203.857 5.63177H197.137L204.305 21.7598H211.729ZM228.749 22.0798C234.189 22.0798 237.613 19.5518 237.613 15.9678V15.5838H231.597V15.9358C231.597 16.8958 230.957 17.3118 228.525 17.3118C225.965 17.3118 225.101 16.7678 225.005 14.8158H237.645C237.709 14.2398 237.741 13.8238 237.741 13.2798C237.741 8.09577 234.189 5.31177 228.621 5.31177C223.245 5.31177 219.437 8.44777 219.437 13.6958C219.437 19.7438 223.277 22.0798 228.749 22.0798ZM228.493 9.91977C230.733 9.91977 231.693 10.3998 231.917 11.7758H225.101C225.357 10.3998 226.285 9.91977 228.493 9.91977ZM245.367 21.7598V13.4398C245.367 11.3598 246.007 10.6878 248.663 10.6878C251.287 10.6878 252.119 11.3918 252.119 13.6318V21.7598H258.135V11.4238C258.135 7.93577 256.087 5.31177 251.735 5.31177C247.415 5.31177 245.655 7.83976 245.303 10.5278H244.983V5.63177H239.351V21.7598H245.367ZM271.978 21.7598V16.3518H269.098C267.722 16.3518 267.338 16.0318 267.338 14.7518V10.5598H271.978V5.63177H267.338V2.84776H261.322V5.63177H258.954V10.5598H261.322V15.6158C261.322 19.8078 263.722 21.7598 267.754 21.7598H271.978ZM282.086 22.0798C287.43 22.0798 290.438 19.9038 290.438 16.8958C290.438 14.1758 288.934 12.6078 284.23 12.0958L281.03 11.7438C279.142 11.5518 278.886 11.3278 278.886 10.8798C278.886 10.2718 279.142 10.0158 281.094 10.0158C283.526 10.0158 283.846 10.3998 283.846 11.2318V11.4238H289.862V11.2958C289.862 7.32776 286.886 5.31177 281.286 5.31177C275.238 5.31177 272.966 7.77577 272.966 10.6238C272.966 13.3438 274.758 14.9118 278.086 15.2638L282.758 15.7758C284.262 15.9358 284.518 16.0638 284.518 16.5758C284.518 17.1198 284.198 17.3438 282.118 17.3438C279.942 17.3438 279.366 17.2478 279.366 16.3518V16.0318H273.35V16.1598C273.35 19.8718 276.39 22.0798 282.086 22.0798Z" fill="white"/>
</svg>
