<svg width="226" height="44" viewBox="0 0 226 44" fill="none" xmlns="http://www.w3.org/2000/svg">
<path d="M38.08 42.8799V32.0639H12.032V26.6879H37.12V15.9359H12.032V10.8159H38.08V-0.000118256H1.90735e-06V42.8799H38.08ZM68.444 42.8799L82.908 10.6239H69.724L61.596 31.1679H60.764L52.7 10.6239H39.26L53.596 42.8799H68.444ZM102.484 43.5199C113.364 43.5199 120.212 38.4639 120.212 31.2959V30.5279H108.18V31.2319C108.18 33.1519 106.9 33.9839 102.036 33.9839C96.916 33.9839 95.188 32.8959 94.996 28.9919H120.276C120.404 27.8399 120.468 27.0079 120.468 25.9199C120.468 15.5519 113.364 9.98388 102.228 9.98388C91.476 9.98388 83.86 16.2559 83.86 26.7519C83.86 38.8479 91.54 43.5199 102.484 43.5199ZM101.972 19.1999C106.452 19.1999 108.372 20.1599 108.82 22.9119H95.188C95.7 20.1599 97.556 19.1999 101.972 19.1999ZM135.72 42.8799V26.2399C135.72 22.0799 137 20.7359 142.312 20.7359C147.56 20.7359 149.224 22.1439 149.224 26.6239V42.8799H161.256V22.2079C161.256 15.2319 157.16 9.98388 148.456 9.98388C139.816 9.98388 136.296 15.0399 135.592 20.4159H134.952V10.6239H123.688V42.8799H135.72ZM188.941 42.8799V32.0639H183.181C180.429 32.0639 179.661 31.4239 179.661 28.8639V20.4799H188.941V10.6239H179.661V5.05588H167.629V10.6239H162.893V20.4799H167.629V30.5919C167.629 38.9759 172.429 42.8799 180.493 42.8799H188.941ZM209.157 43.5199C219.845 43.5199 225.861 39.1679 225.861 33.1519C225.861 27.7119 222.853 24.5759 213.445 23.5519L207.045 22.8479C203.269 22.4639 202.757 22.0159 202.757 21.1199C202.757 19.9039 203.269 19.3919 207.173 19.3919C212.037 19.3919 212.677 20.1599 212.677 21.8239V22.2079H224.709V21.9519C224.709 14.0159 218.757 9.98388 207.557 9.98388C195.461 9.98388 190.917 14.9119 190.917 20.6079C190.917 26.0479 194.501 29.1839 201.157 29.8879L210.501 30.9119C213.509 31.2319 214.021 31.4879 214.021 32.5119C214.021 33.5999 213.381 34.0479 209.221 34.0479C204.869 34.0479 203.717 33.8559 203.717 32.0639V31.4239H191.685V31.6799C191.685 39.1039 197.765 43.5199 209.157 43.5199Z" fill="#36392D"/>
</svg>
